<svg width="20" height="31" viewBox="0 0 20 31" fill="none" xmlns="http://www.w3.org/2000/svg">
<path d="M13.2056 1.66089C13.16 1.19285 12.841 0.7497 12.5261 0C11.9957 0.654434 11.5192 1.00236 11.3866 1.4497C10.8645 3.21418 10.4377 5.00763 10.0067 6.79696C9.53024 8.77683 9.30235 10.8271 8.39076 12.7117C5.62285 13.1922 2.6809 12.397 0 14.3313C2.06351 16.6384 5.1339 15.5946 7.45431 17.1188C7.02752 19.2809 6.5137 21.4803 6.17393 23.7087C5.82587 25.9868 4.76098 28.269 6.00405 30.9489C7.64906 29.9341 7.95568 28.5175 8.33275 27.188C9.00815 24.7856 9.57168 22.3543 10.2181 19.9478C10.4625 19.0365 10.8148 18.1543 11.0717 17.3922C13.16 17.3922 14.9956 17.4336 16.8271 17.3715C17.6724 17.3425 18.526 17.1561 19.3505 16.9448C19.8353 16.8206 19.9472 15.8804 19.5411 15.5739C19.1144 15.2549 18.6669 14.8904 18.1696 14.7579C16.9141 14.4306 15.6213 14.2443 14.3534 13.9585C13.5329 13.7721 12.5965 13.8135 12.0164 12.8691C12.1158 12.2934 12.2277 11.6597 12.3272 11.0218C12.8161 7.92361 13.5122 4.83365 13.2056 1.66089Z" fill="#EC7161"/>
</svg>
