<svg width="38" height="35" viewBox="0 0 38 35" fill="none" xmlns="http://www.w3.org/2000/svg">
<path d="M11.1211 0.932625C11.1338 0.919853 11.3353 1.09863 11.7025 1.45107C12.0645 1.81116 12.5974 2.33727 13.2808 3.0166C14.6296 4.40592 16.5752 6.41072 18.9771 8.888C23.7529 13.8834 30.2779 20.8632 37.3409 28.7343C37.6443 29.074 37.7617 29.5183 37.6928 29.9372L37.6852 29.9857L37.5067 31.0354C37.3766 31.7887 36.7035 32.3148 35.9564 32.2663L35.9079 32.2638C33.6258 32.1131 31.2953 32.0186 28.9367 31.9854C23.5081 31.8884 18.0719 32.1795 12.6816 32.8537C8.89506 33.3134 5.26411 33.9442 1.84479 34.6746C1.02629 34.856 0.215488 34.3401 0.0344505 33.5228C-0.0700912 33.0529 0.0701447 32.5651 0.350628 32.2178C6.29427 25.0976 9.20873 17.4767 10.6162 12.0574C12.0441 6.5946 12.2583 3.21836 12.9289 3.25922C13.5459 3.23112 14.0686 6.74018 12.9901 12.5937C11.9242 18.391 8.95627 26.5431 2.6888 34.169L1.18698 31.6968C4.68534 30.9204 8.40804 30.2488 12.294 29.7456C17.8271 29.0535 23.4112 28.7547 28.9902 28.8543C31.4151 28.9105 33.8094 29.0484 36.1476 29.2604L34.5463 30.4888L34.7529 29.4443L35.0971 30.6957C28.2559 22.6305 22.223 15.2268 17.9189 9.82017C15.7924 7.10283 14.0687 4.90137 12.8753 3.37415C12.2991 2.60032 11.8503 2.00015 11.5443 1.58897C11.246 1.1778 11.1007 0.9505 11.1211 0.932625Z" fill="#EC7161"/>
</svg>
