<svg width="23" height="31" viewBox="0 0 23 31" fill="none" xmlns="http://www.w3.org/2000/svg">
<mask id="path-1-inside-1_163_3239" fill="white">
<path d="M22.0837 28.1536C22.3246 28.6697 22.1025 29.2868 21.5717 29.4936C19.8887 30.1491 18.1034 30.5123 16.2929 30.5648C14.1382 30.6272 11.9936 30.2483 9.99081 29.4513C7.98802 28.6543 6.16941 27.4561 4.6468 25.9303C3.12419 24.4045 1.92975 22.5834 1.13693 20.579C0.344109 18.5745 -0.0303412 16.4291 0.0366009 14.2746C0.103542 12.1201 0.610463 10.002 1.52619 8.05068C2.44193 6.09932 3.74711 4.35589 5.36151 2.92757C6.71804 1.7274 8.26879 0.771037 9.94485 0.0979767C10.4734 -0.11429 11.0576 0.183932 11.2349 0.725235C11.4123 1.26654 11.1154 1.84549 10.5889 2.06293C9.17929 2.64507 7.87413 3.45875 6.72835 4.47247C5.32463 5.71439 4.18978 7.2303 3.39355 8.927C2.59733 10.6237 2.15657 12.4653 2.09836 14.3387C2.04016 16.212 2.36574 18.0774 3.05509 19.8203C3.74445 21.5631 4.783 23.1466 6.10691 24.4732C7.43081 25.7999 9.01208 26.8418 10.7535 27.5347C12.4949 28.2277 14.3597 28.5572 16.2331 28.5029C17.7623 28.4586 19.271 28.1593 20.6974 27.6197C21.2302 27.4182 21.8428 27.6374 22.0837 28.1536Z"/>
</mask>
<path d="M22.0837 28.1536C22.3246 28.6697 22.1025 29.2868 21.5717 29.4936C19.8887 30.1491 18.1034 30.5123 16.2929 30.5648C14.1382 30.6272 11.9936 30.2483 9.99081 29.4513C7.98802 28.6543 6.16941 27.4561 4.6468 25.9303C3.12419 24.4045 1.92975 22.5834 1.13693 20.579C0.344109 18.5745 -0.0303412 16.4291 0.0366009 14.2746C0.103542 12.1201 0.610463 10.002 1.52619 8.05068C2.44193 6.09932 3.74711 4.35589 5.36151 2.92757C6.71804 1.7274 8.26879 0.771037 9.94485 0.0979767C10.4734 -0.11429 11.0576 0.183932 11.2349 0.725235C11.4123 1.26654 11.1154 1.84549 10.5889 2.06293C9.17929 2.64507 7.87413 3.45875 6.72835 4.47247C5.32463 5.71439 4.18978 7.2303 3.39355 8.927C2.59733 10.6237 2.15657 12.4653 2.09836 14.3387C2.04016 16.212 2.36574 18.0774 3.05509 19.8203C3.74445 21.5631 4.783 23.1466 6.10691 24.4732C7.43081 25.7999 9.01208 26.8418 10.7535 27.5347C12.4949 28.2277 14.3597 28.5572 16.2331 28.5029C17.7623 28.4586 19.271 28.1593 20.6974 27.6197C21.2302 27.4182 21.8428 27.6374 22.0837 28.1536Z" stroke="#EC7161" stroke-width="4" mask="url(#path-1-inside-1_163_3239)"/>
</svg>
