<svg width="166" height="83" viewBox="0 0 166 83" fill="none" xmlns="http://www.w3.org/2000/svg">
<path d="M8.43404e-05 82.5C8.33932e-05 71.666 2.14301 60.938 6.30652 50.9286C10.47 40.9193 16.5726 31.8245 24.2657 24.1637C31.9589 16.5028 41.092 10.4259 51.1436 6.27993C61.1952 2.13392 71.9684 -7.06484e-06 82.8482 -8.01598e-06C93.7279 -8.96712e-06 104.501 2.13392 114.553 6.27993C124.604 10.4259 133.737 16.5029 141.431 24.1637C149.124 31.8245 155.226 40.9193 159.39 50.9286C163.553 60.938 165.696 71.6659 165.696 82.5L82.8482 82.5L8.43404e-05 82.5Z" fill="#2f80ed"/>
</svg>
