<svg width="230" height="140" viewBox="0 0 230 140" fill="none" xmlns="http://www.w3.org/2000/svg">
<rect x="1.25" y="1.25" width="227.5" height="247.5" stroke="#F5856F" stroke-width="2.5"/>
<line y1="19.75" x2="230" y2="19.75" stroke="#F5856F" stroke-width="2.5"/>
<line y1="45.75" x2="230" y2="45.75" stroke="#F5856F" stroke-width="2.5"/>
<line y1="71.75" x2="230" y2="71.75" stroke="#F5856F" stroke-width="2.5"/>
<line y1="97.75" x2="230" y2="97.75" stroke="#F5856F" stroke-width="2.5"/>
<line y1="123.75" x2="230" y2="123.75" stroke="#F5856F" stroke-width="2.5"/>
<line x1="207.25" y1="5.46392e-08" x2="207.25" y2="250" stroke="#F5856F" stroke-width="2.5"/>
<line x1="181.25" y1="5.46392e-08" x2="181.25" y2="250" stroke="#F5856F" stroke-width="2.5"/>
<line x1="155.25" y1="5.46392e-08" x2="155.25" y2="250" stroke="#F5856F" stroke-width="2.5"/>
<line x1="129.25" y1="5.46392e-08" x2="129.25" y2="250" stroke="#F5856F" stroke-width="2.5"/>
<line x1="103.25" y1="5.46392e-08" x2="103.25" y2="250" stroke="#F5856F" stroke-width="2.5"/>
<line x1="77.25" y1="5.46392e-08" x2="77.25" y2="250" stroke="#F5856F" stroke-width="2.5"/>
<line x1="51.25" y1="5.46392e-08" x2="51.25" y2="250" stroke="#F5856F" stroke-width="2.5"/>
<line x1="25.25" y1="5.46392e-08" x2="25.25" y2="250" stroke="#F5856F" stroke-width="2.5"/>
</svg>
