<svg width="39" height="39" viewBox="0 0 39 39" fill="none" xmlns="http://www.w3.org/2000/svg">
<path d="M38.1776 34.6612L37.0326 33.5416L37.117 33.4553C38.0566 32.4944 38.0239 30.942 37.0441 29.9839L26.8052 19.9721C25.8254 19.014 24.2726 19.0162 23.3331 19.977L23.3014 20.0094C22.947 19.0504 22.3672 18.1456 21.5856 17.3813C20.8039 16.617 19.8863 16.0576 18.9196 15.7248L18.9513 15.6924C19.8798 14.7208 19.8472 13.1684 18.8673 12.2103L8.62844 2.19849C7.63758 1.22961 6.08483 1.23181 5.14531 2.19264L5.06086 2.27901L3.91586 1.15941C3.16721 0.427364 1.95952 0.429073 1.24168 1.16319C0.513285 1.90811 0.549216 3.10474 1.29787 3.83679L2.47589 4.98868C-0.486077 8.74464 -0.154422 14.264 3.41267 17.752C6.94674 21.2077 12.3974 21.4479 16.0878 18.4887C17.2492 18.3362 18.4756 18.7118 19.3894 19.6053C20.3032 20.4988 20.7062 21.7165 20.5797 22.881C17.704 26.6368 18.0664 32.0807 21.6004 35.5364C25.1675 39.0244 30.693 39.2322 34.3816 36.1867L35.5596 37.3386C36.3192 38.0814 37.5159 38.069 38.2338 37.3348C38.9516 36.6007 38.9262 35.3933 38.1776 34.6612Z" fill="#F78670"/>
</svg>
