<svg width="215" height="18" viewBox="0 0 215 18" fill="none" xmlns="http://www.w3.org/2000/svg">
<path d="M197.831 4.28569C193.146 4.08079 188.46 3.93015 183.775 3.75538C182.229 3.69511 180.675 3.6951 179.129 3.66496C175.773 3.59867 172.417 3.5384 169.061 3.4721C167.195 3.43594 165.321 3.39376 163.454 3.36363C162.91 3.3576 162.373 3.35156 161.829 3.35156C160.611 3.35156 159.394 3.36363 158.176 3.36966C152.642 3.37569 147.099 3.38169 141.564 3.38169C140.243 3.38169 138.929 3.40583 137.608 3.41788C134.34 3.44802 131.08 3.48416 127.82 3.5143C124.136 3.55046 120.459 3.56252 116.775 3.63484C110.816 3.74332 104.865 3.85782 98.9056 3.9663C95.4535 4.03259 92.0094 4.06877 88.5573 4.17122C82.6143 4.35202 76.6792 4.52676 70.7361 4.70154C67.4923 4.79796 64.2404 4.87632 60.9965 5.01494C54.8532 5.27409 48.7099 5.52723 42.5666 5.78637C39.2827 5.92499 35.9988 6.02744 32.7229 6.23838C26.6036 6.63011 20.4923 7.02182 14.3731 7.41355C13.0515 7.49793 11.7299 7.58233 10.4083 7.6667C7.7652 7.83545 5.13807 8.1006 2.50294 8.32359C2.33474 8.34167 2.17455 8.35976 2.00635 8.37182C1.69398 8.43811 1.41364 8.55863 1.18137 8.7334C0.836956 8.99255 0.636719 9.35416 0.636719 9.72179C0.636719 10.0894 0.836956 10.451 1.18137 10.7162C1.49374 10.9513 2.03839 11.1682 2.50294 11.126C5.68272 10.8548 8.8545 10.5716 12.0423 10.3667C14.9978 10.1798 17.9453 9.98697 20.9008 9.80014C24.1207 9.59523 27.3405 9.39031 30.5603 9.1854C31.8579 9.10103 33.1554 8.99257 34.461 8.93833C39.4829 8.72739 44.5049 8.5225 49.5269 8.31156C52.6586 8.17898 55.7903 8.0524 58.9221 7.91981C60.2116 7.86557 61.5091 7.79927 62.8067 7.75708C67.7806 7.60641 72.7625 7.46782 77.7365 7.32921C80.756 7.24483 83.7676 7.15444 86.7872 7.07006C87.8044 7.03993 88.8136 7.00376 89.8308 6.98568C95.2052 6.88925 100.58 6.79884 105.954 6.70844C108.958 6.6542 111.953 6.60598 114.957 6.55174C116.022 6.53366 117.095 6.50355 118.161 6.49752C123.703 6.45533 129.246 6.41313 134.788 6.37095C138.248 6.34081 141.701 6.3167 145.161 6.32272C151.048 6.33478 156.935 6.34083 162.814 6.35288C163.975 6.35288 165.136 6.38904 166.298 6.41917C169.55 6.49149 172.794 6.5638 176.045 6.63612C178.48 6.69036 180.923 6.74461 183.358 6.79885C185.088 6.83502 186.81 6.93142 188.54 7.00374C193.626 7.20865 198.712 7.42563 203.79 7.66067C205.08 7.72094 206.37 7.79324 207.659 7.86556C209.045 7.9439 210.43 8.01622 211.808 8.13073C212.024 8.15484 212.232 8.18499 212.449 8.22115C212.993 8.30552 213.514 8.28141 214.003 8.07048C214.451 7.8716 214.788 7.54012 214.932 7.16044C215.22 6.36492 214.579 5.51517 213.522 5.29218C212.593 5.09933 211.632 5.02097 210.679 4.94865C210.022 4.90044 209.373 4.8462 208.716 4.79799C207.459 4.70156 206.193 4.65335 204.936 4.58103C202.573 4.47255 200.202 4.39417 197.831 4.28569Z" fill="#EC7161"/>
<path d="M197.376 10.2836C192.717 9.85694 188.054 9.48441 183.392 9.08778C181.854 8.95433 180.304 8.88062 178.763 8.77724C175.42 8.55193 172.075 8.33264 168.732 8.10733C166.872 7.98274 165.005 7.85176 163.145 7.73319C162.602 7.70134 162.067 7.66987 161.523 7.64404C160.308 7.58631 159.092 7.54062 157.877 7.4889C152.353 7.23245 146.821 6.9756 141.297 6.71314C139.978 6.65047 138.665 6.61227 137.345 6.56163C134.081 6.43673 130.825 6.31821 127.569 6.1937C123.889 6.05507 120.219 5.89276 116.536 5.79022C110.579 5.61589 104.631 5.44795 98.6742 5.27362C95.2234 5.17608 91.7831 5.04886 88.3293 4.9874C82.3829 4.88601 76.445 4.77895 70.4991 4.67154C67.2536 4.61395 64.0016 4.53794 60.7526 4.52245C54.5998 4.48975 48.4475 4.45106 42.2947 4.41837C39.0057 4.40097 35.7197 4.3475 32.4327 4.40266C26.2927 4.50343 20.1608 4.60455 14.0208 4.70531C12.6948 4.72685 11.3688 4.74841 10.0428 4.76994C7.39075 4.81301 4.74662 4.95305 2.09803 5.05064C1.92865 5.0607 1.76727 5.07116 1.59839 5.07521C1.28108 5.12656 0.9912 5.23355 0.744734 5.39696C0.379285 5.63926 0.149132 5.99065 0.118312 6.35755C0.0874932 6.72445 0.257017 7.09484 0.578511 7.37582C0.870557 7.62521 1.39593 7.86756 1.8631 7.84749C5.05929 7.72762 8.2485 7.59533 11.4471 7.54201C14.4124 7.49571 17.3702 7.44301 20.3355 7.39671C23.5661 7.3449 26.7967 7.29308 30.0273 7.24127C31.3294 7.2186 32.6334 7.17188 33.9409 7.17966C38.9706 7.2073 43.9998 7.24096 49.0294 7.2686C52.166 7.28479 55.3021 7.30698 58.4388 7.32317C59.7303 7.33019 61.0308 7.32555 62.3293 7.34498C67.3059 7.43048 72.2896 7.52842 77.2652 7.62595C80.2859 7.68494 83.299 7.73754 86.3197 7.79653C87.3374 7.8147 88.3476 7.82646 89.3643 7.85665C94.7361 8.01528 100.107 8.17991 105.479 8.34456C108.481 8.43286 111.474 8.52679 114.477 8.61509C115.541 8.64757 116.615 8.66841 117.679 8.71291C123.214 8.93365 128.749 9.15438 134.284 9.37512C137.74 9.50913 141.187 9.64876 144.64 9.81886C150.514 10.1101 156.389 10.3953 162.255 10.6861C163.414 10.7412 164.57 10.8323 165.727 10.9175C168.966 11.1439 172.197 11.3699 175.437 11.5963C177.862 11.7659 180.296 11.9358 182.721 12.1054C184.445 12.2236 186.155 12.4015 187.876 12.5557C192.935 13.0014 197.992 13.4591 203.041 13.9345C204.323 14.0558 205.603 14.1891 206.884 14.3224C208.261 14.4663 209.638 14.6042 211.003 14.7838C211.217 14.8181 211.422 14.8581 211.635 14.9044C212.171 15.0145 212.693 15.0151 213.198 14.8278C213.662 14.6506 214.026 14.3357 214.202 13.9636C214.556 13.1833 213.988 12.3049 212.951 12.0322C212.04 11.7957 211.088 11.6719 210.142 11.5545C209.491 11.4753 208.848 11.3904 208.197 11.3111C206.95 11.1552 205.691 11.0471 204.442 10.9153C202.093 10.695 199.733 10.5043 197.376 10.2836Z" fill="#EC7161"/>
</svg>
