<svg width="30" height="17" viewBox="0 0 30 17" fill="none" xmlns="http://www.w3.org/2000/svg">
<path d="M15 0.458984C12.2852 0.458984 9.76562 0.820313 7.44141 1.54297C5.17578 2.24609 3.37891 3.19336 2.05078 4.38477C0.683594 5.5957 0 6.92383 0 8.36914C0 9.79492 0.683594 11.123 2.05078 12.3535C3.37891 13.5449 5.17578 14.4824 7.44141 15.166C9.76562 15.8887 12.2852 16.25 15 16.25C17.7148 16.25 20.2344 15.8887 22.5586 15.166C24.8242 14.4824 26.6211 13.5449 27.9492 12.3535C29.3164 11.123 30 9.79492 30 8.36914C30 6.92383 29.3164 5.5957 27.9492 4.38477C26.6211 3.19336 24.8242 2.24609 22.5586 1.54297C20.2344 0.820313 17.7148 0.458984 15 0.458984ZM15 1.25C17.5977 1.25 20.0195 1.5918 22.2656 2.27539C24.375 2.91992 26.0547 3.78906 27.3047 4.88281C28.5742 5.97656 29.209 7.13867 29.209 8.36914C29.209 9.59961 28.5742 10.7617 27.3047 11.8555C26.0547 12.9297 24.375 13.7891 22.2656 14.4336C20.0195 15.1172 17.5977 15.459 15 15.459C12.4023 15.459 9.98047 15.1172 7.73438 14.4336C5.625 13.7891 3.93555 12.9297 2.66602 11.8555C1.41602 10.7617 0.791016 9.59961 0.791016 8.36914C0.791016 7.13867 1.41602 5.97656 2.66602 4.88281C3.93555 3.78906 5.625 2.91992 7.73438 2.27539C9.98047 1.5918 12.4023 1.25 15 1.25ZM13.1836 2.83203L11.6602 10.625H13.3594L14.2383 6.17188L14.8242 6.14258C15.3711 6.14258 15.7324 6.15234 15.9082 6.17188C16.1621 6.21094 16.3281 6.2793 16.4062 6.37695C16.4844 6.45508 16.5234 6.5625 16.5234 6.69922C16.543 6.81641 16.5234 7.04102 16.4648 7.37305L15.8496 10.625H17.5488L17.9004 8.95508C18.0762 8.01758 18.1934 7.39258 18.252 7.08008C18.3105 6.61133 18.3203 6.25977 18.2812 6.02539C18.2422 5.77148 18.125 5.55664 17.9297 5.38086C17.6758 5.14648 17.2754 5 16.7285 4.94141C16.3965 4.90234 15.8398 4.88281 15.0586 4.88281H14.4727L14.8828 2.83203H13.1836ZM6.09375 4.91211L4.57031 12.7344H6.26953L6.67969 10.6543H7.26562C8.22266 10.6543 8.89648 10.625 9.28711 10.5664C9.89258 10.4492 10.4102 10.1855 10.8398 9.77539C11.25 9.4043 11.5527 8.96484 11.748 8.45703C11.9434 7.92969 12.0215 7.42188 11.9824 6.93359C11.9629 6.42578 11.8066 6.00586 11.5137 5.67383C11.0645 5.16602 10.3418 4.91211 9.3457 4.91211H6.09375ZM19.3945 4.91211L17.8711 12.7344H19.5703L19.9805 10.6543H20.5371C21.5332 10.6543 22.2266 10.6152 22.6172 10.5371C23.2031 10.4395 23.7207 10.1855 24.1699 9.77539C24.5605 9.4043 24.8535 8.96484 25.0488 8.45703C25.2637 7.92969 25.3516 7.42188 25.3125 6.93359C25.2734 6.42578 25.1074 6.00586 24.8145 5.67383C24.3652 5.16602 23.6523 4.91211 22.6758 4.91211H19.3945ZM8.75977 6.14258C9.3457 6.16211 9.74609 6.25977 9.96094 6.43555C10.2148 6.66992 10.2832 7.09961 10.166 7.72461C10.0684 8.27148 9.87305 8.67188 9.58008 8.92578C9.3457 9.16016 9.02344 9.30664 8.61328 9.36523C8.35938 9.4043 7.92969 9.42383 7.32422 9.42383H6.91406L7.55859 6.14258H8.75977ZM22.0605 6.14258C22.6465 6.16211 23.0469 6.25977 23.2617 6.43555C23.5156 6.66992 23.584 7.09961 23.4668 7.72461C23.3691 8.27148 23.1738 8.67188 22.8809 8.92578C22.6465 9.16016 22.3242 9.30664 21.9141 9.36523C21.6602 9.4043 21.2402 9.42383 20.6543 9.42383H20.2148L20.8594 6.14258H22.0605Z" fill="black"/>
</svg>
