<svg width="26" height="25" viewBox="0 0 26 25" fill="none" xmlns="http://www.w3.org/2000/svg">
<path d="M13 0.5625C10.793 0.5625 8.74219 1.11914 6.84766 2.23242C5.01172 3.30664 3.55664 4.76172 2.48242 6.59766C1.36914 8.49219 0.8125 10.543 0.8125 12.75C0.8125 14.957 1.36914 17.0078 2.48242 18.9023C3.55664 20.7383 5.01172 22.1934 6.84766 23.2676C8.74219 24.3809 10.793 24.9375 13 24.9375C15.207 24.9375 17.2578 24.3809 19.1523 23.2676C20.9883 22.1934 22.4434 20.7383 23.5176 18.9023C24.6309 17.0078 25.1875 14.957 25.1875 12.75C25.1875 10.543 24.6309 8.49219 23.5176 6.59766C22.4434 4.76172 20.9883 3.30664 19.1523 2.23242C17.2578 1.11914 15.207 0.5625 13 0.5625ZM13 2.58398C14.3086 2.58398 15.5586 2.82813 16.75 3.31641C17.9023 3.76563 18.9375 4.41016 19.8555 5.25H19.709C19.2402 5.25 18.8496 5.43555 18.5371 5.80664C18.2246 6.1582 18.0684 6.57813 18.0684 7.06641C18.0684 7.4375 18.166 7.82812 18.3613 8.23828C18.4785 8.51172 18.7031 8.91211 19.0352 9.43945C19.2891 9.88867 19.4746 10.2793 19.5918 10.6113C19.7676 11.1387 19.8555 11.6758 19.8555 12.2227C19.8555 12.6133 19.7871 13.082 19.6504 13.6289C19.5527 13.9805 19.377 14.5762 19.123 15.416L18.0684 18.9023L14.2598 7.1543L15.4316 7.06641C15.6074 7.04688 15.7246 6.96875 15.7832 6.83203C15.8418 6.67578 15.832 6.53906 15.7539 6.42188C15.6758 6.28516 15.5488 6.2168 15.373 6.2168L14.4062 6.30469C13.6836 6.34375 13.1074 6.36328 12.6777 6.36328C12.248 6.36328 11.6719 6.34375 10.9492 6.30469L9.98242 6.2168C9.80664 6.2168 9.67969 6.28516 9.60156 6.42188C9.52344 6.55859 9.51367 6.70508 9.57227 6.86133C9.63086 6.99805 9.74805 7.06641 9.92383 7.06641L10.9785 7.1543L12.707 12.3105L10.4805 18.9902L6.64258 7.1543L7.81445 7.06641C7.99023 7.04688 8.09766 6.96875 8.13672 6.83203C8.19531 6.67578 8.18555 6.53906 8.10742 6.42188C8.0293 6.28516 7.91211 6.2168 7.75586 6.2168L6.81836 6.30469C6.11523 6.34375 5.53906 6.36328 5.08984 6.36328C6.04688 5.19141 7.19922 4.27344 8.54688 3.60938C9.95312 2.92578 11.4375 2.58398 13 2.58398ZM21.9062 7.88672C22.7461 9.39062 23.166 11.0117 23.166 12.75C23.166 14.7227 22.6387 16.5391 21.584 18.1992C20.5488 19.8008 19.1719 21.0215 17.4531 21.8613C17.7461 21.7246 17.9609 21.6074 18.0977 21.5098L21.2031 12.5449C21.7109 11.2754 21.9648 10.0645 21.9648 8.91211C21.9648 8.54102 21.9453 8.19922 21.9062 7.88672ZM3.83008 8.41406L8.57617 21.8906C6.83789 21.0508 5.46094 19.8203 4.44531 18.1992C3.37109 16.5586 2.83398 14.7422 2.83398 12.75C2.83398 11.2461 3.15625 9.80078 3.80078 8.41406H3.83008ZM13.1758 13.6289L16.3105 22.1836C16.3301 22.2422 16.3496 22.291 16.3691 22.3301C15.2559 22.7207 14.1328 22.916 13 22.916C12.0234 22.916 11.0664 22.7695 10.1289 22.4766L13.1758 13.6289ZM8.69336 21.9492C8.92773 22.0469 9.19141 22.1543 9.48438 22.2715C9.21094 22.1738 8.94727 22.0664 8.69336 21.9492ZM17.1309 22.0371C16.9551 22.1152 16.7402 22.1934 16.4863 22.2715C16.7012 22.2129 16.916 22.1348 17.1309 22.0371ZM9.77734 22.3887L10.0996 22.4766L9.77734 22.3887Z" fill="black"/>
</svg>
