<svg width="24" height="20" viewBox="0 0 24 20" fill="none" xmlns="http://www.w3.org/2000/svg">
<path d="M1.6875 0.3125C1.43359 0.3125 1.20898 0.410156 1.01367 0.605469C0.837891 0.78125 0.75 0.996094 0.75 1.25C0.75 1.50391 0.837891 1.72852 1.01367 1.92383C1.20898 2.09961 1.43359 2.1875 1.6875 2.1875H3.76758L6.22852 12.0312C6.32617 12.4414 6.54102 12.7832 6.87305 13.0566C7.22461 13.3105 7.61523 13.4375 8.04492 13.4375H18.7969C19.2266 13.4375 19.5977 13.3105 19.9102 13.0566C20.2422 12.8027 20.4668 12.4707 20.584 12.0605L23.0156 3.125H7.3125L7.78125 5H20.584L18.7969 11.5625H8.04492L5.58398 1.71875C5.48633 1.30859 5.26172 0.976562 4.91016 0.722656C4.57813 0.449219 4.19727 0.3125 3.76758 0.3125H1.6875ZM17.625 13.4375C16.8633 13.4375 16.1992 13.7207 15.6328 14.2871C15.0859 14.834 14.8125 15.4883 14.8125 16.25C14.8125 17.0117 15.0859 17.6758 15.6328 18.2422C16.1992 18.7891 16.8633 19.0625 17.625 19.0625C18.3867 19.0625 19.041 18.7891 19.5879 18.2422C20.1543 17.6758 20.4375 17.0117 20.4375 16.25C20.4375 15.4883 20.1543 14.834 19.5879 14.2871C19.041 13.7207 18.3867 13.4375 17.625 13.4375ZM9.1875 13.4375C8.42578 13.4375 7.76172 13.7207 7.19531 14.2871C6.64844 14.834 6.375 15.4883 6.375 16.25C6.375 17.0117 6.64844 17.6758 7.19531 18.2422C7.76172 18.7891 8.42578 19.0625 9.1875 19.0625C9.94922 19.0625 10.6035 18.7891 11.1504 18.2422C11.7168 17.6758 12 17.0117 12 16.25C12 15.4883 11.7168 14.834 11.1504 14.2871C10.6035 13.7207 9.94922 13.4375 9.1875 13.4375ZM9.1875 15.3125C9.46094 15.3125 9.68555 15.4004 9.86133 15.5762C10.0371 15.752 10.125 15.9766 10.125 16.25C10.125 16.5039 10.0371 16.7285 9.86133 16.9238C9.68555 17.0996 9.46094 17.1875 9.1875 17.1875C8.93359 17.1875 8.70898 17.0996 8.51367 16.9238C8.33789 16.7285 8.25 16.5039 8.25 16.25C8.25 15.9766 8.33789 15.752 8.51367 15.5762C8.70898 15.4004 8.93359 15.3125 9.1875 15.3125ZM17.625 15.3125C17.8984 15.3125 18.123 15.4004 18.2988 15.5762C18.4746 15.752 18.5625 15.9766 18.5625 16.25C18.5625 16.5039 18.4746 16.7285 18.2988 16.9238C18.123 17.0996 17.8984 17.1875 17.625 17.1875C17.3711 17.1875 17.1465 17.0996 16.9512 16.9238C16.7754 16.7285 16.6875 16.5039 16.6875 16.25C16.6875 15.9766 16.7754 15.752 16.9512 15.5762C17.1465 15.4004 17.3711 15.3125 17.625 15.3125Z" fill="black"/>
</svg>
