<svg width="22" height="24" viewBox="0 0 22 24" fill="none" xmlns="http://www.w3.org/2000/svg">
<path d="M0.892578 0.5L0.980469 1.52539L2.67969 20.7148L10.9707 23.0293L11.2344 22.9707L19.291 20.7441L21.1074 0.529297L1.91797 0.5H0.892578ZM2.94336 2.375L19.0566 2.4043L17.5332 19.2793L11 21.0957L4.4375 19.2793L2.94336 2.375ZM5.19922 5.1875L5.81445 12.1895H13.8418L13.5781 15.207L11 15.9102L8.39258 15.207L8.24609 13.2734H5.90234L6.22461 16.9941L10.9707 18.3125L15.7461 16.9941L16.3906 9.875H7.92383L7.71875 7.50195H16.5957L16.8008 5.1875H5.19922Z" fill="black"/>
</svg>
