<svg width="24" height="20" viewBox="0 0 24 20" fill="none" xmlns="http://www.w3.org/2000/svg">
<path d="M12 0.316406L11.6484 0.433594L2.27344 4.18359L0.105469 5.0625L5.93555 7.40625L0.105469 9.75L5.93555 12.0938L0.105469 14.4375L2.27344 15.3164L11.6484 19.0664L12 19.1836L12.3516 19.0664L21.7266 15.3164L23.8945 14.4375L18.0645 12.0938L23.8945 9.75L18.0645 7.40625L23.8945 5.0625L21.7266 4.18359L12.3516 0.433594L12 0.316406ZM12 2.33789L18.8262 5.0625L12 7.78711L5.17383 5.0625L12 2.33789ZM8.48438 8.43164L11.6484 9.69141L12 9.80859L12.3516 9.69141L15.5156 8.43164L18.8262 9.75L12 12.4746L5.17383 9.75L8.48438 8.43164ZM8.48438 13.1191L11.6484 14.3789L12 14.4961L12.3516 14.3789L15.5156 13.1191L18.8262 14.4375L12 17.1621L5.17383 14.4375L8.48438 13.1191Z" fill="black"/>
</svg>
