<svg width="24" height="23" viewBox="0 0 24 23" fill="none" xmlns="http://www.w3.org/2000/svg">
<path d="M10.8867 0.5L10.3008 3.13672L9.1875 3.40039L7.3125 1.4375L5.52539 2.46289L6.28711 5.1875L5.52539 5.94922L2.80078 5.1875L1.77539 6.97461L3.73828 8.9375L3.47461 9.875L0.75 10.6367V12.6875L3.47461 13.4492L3.73828 14.5625L1.86328 16.4375L2.80078 18.2246L5.61328 17.4629L6.28711 18.3125L5.4375 20.832L7.3125 21.9746L9.1875 20.0117L10.2129 20.2754L10.8867 23H13.0254L13.6992 20.2754L14.8125 20.0117L16.7754 21.9746L18.6504 20.832L17.8008 18.2246L18.5625 17.4629L21.2871 18.2246L22.2246 16.3496L20.2617 14.5625L20.4375 13.4492L23.25 12.7754V10.8125L20.8184 9.96289L21.1992 10.9883L21.2871 11.3691L20.9941 11.5742L19.9688 12.1309L19.6758 12.3066L19.4121 12.043L18.5625 11.1055H18.4746L18.0938 12.6875H17.0684C16.9121 13.4688 16.5801 14.1719 16.0723 14.7969C15.584 15.4219 14.9688 15.9199 14.2266 16.291C13.5039 16.6426 12.7324 16.8184 11.9121 16.8184C10.9355 16.8184 10.0371 16.5742 9.2168 16.0859C8.39648 15.5977 7.74219 14.9434 7.25391 14.123C6.78516 13.3027 6.55078 12.4141 6.55078 11.457C6.55078 10.6367 6.73633 9.875 7.10742 9.17188C7.49805 8.44922 8.00586 7.84375 8.63086 7.35547C9.27539 6.84766 9.98828 6.49609 10.7695 6.30078V5.36328L12.293 4.89453L11.2383 3.86914L11.4434 3.60547L12 2.66797L12.1758 2.375L12.4688 2.55078L13.582 2.84375L13.0254 0.5H10.8867ZM16.6875 0.5L16.3945 1.81836L15.75 1.99414L14.8125 0.96875L13.875 1.52539L14.2559 2.93164L13.7871 3.3125L12.3809 2.93164L11.8242 3.86914L12.8496 4.89453L12.7617 5.36328L11.3555 5.74414V6.88672L12.8496 7.23828L12.9375 7.91211L11.8242 8.9375L12.3809 9.875L13.875 9.49414L14.2559 9.96289L13.875 11.2812L14.9004 11.8379L15.8379 10.8125L16.3945 10.9883L16.7754 12.3945H17.918L18.2695 10.9883L18.8555 10.8125L19.8809 11.9258L20.9062 11.2812L20.3496 9.875L20.7305 9.49414L22.1367 9.96289L22.6055 8.9375L21.5508 8L21.668 7.35547L23.25 6.97461V5.94922L21.8438 5.48047L21.7559 4.89453L22.7812 3.86914L22.3125 2.93164L20.7305 3.3125L20.3496 2.93164L20.7305 1.52539L19.793 0.96875L18.7383 1.99414L18.1816 1.81836L17.8008 0.5H16.6875ZM17.2441 3.60547C18.0254 3.60547 18.6895 3.88867 19.2363 4.45508C19.7832 5.00195 20.0566 5.65625 20.0566 6.41797C20.1152 7.19922 19.8613 7.86328 19.2949 8.41016C18.748 8.95703 18.0742 9.23047 17.2734 9.23047C16.4727 9.23047 15.7988 8.95703 15.252 8.41016C14.7051 7.84375 14.4316 7.16992 14.4316 6.38867C14.4316 5.60742 14.7051 4.95312 15.252 4.42578C15.8184 3.87891 16.4824 3.60547 17.2441 3.60547Z" fill="black"/>
</svg>
