<svg width="20" height="24" viewBox="0 0 20 24" fill="none" xmlns="http://www.w3.org/2000/svg">
<path d="M4.87305 0.03125C4.69727 0.0703125 4.58008 0.177734 4.52148 0.353516C4.48242 0.509766 4.52148 0.65625 4.63867 0.792969L6.01562 2.78516C5.21484 3.39062 4.58008 4.15234 4.11133 5.07031C3.66211 5.98828 3.4375 6.96484 3.4375 8V17.375C3.4375 17.9414 3.75 18.4297 4.375 18.8398V21.5938C4.375 22.2383 4.59961 22.7852 5.04883 23.2344C5.51758 23.7031 6.07422 23.9375 6.71875 23.9375C7.36328 23.9375 7.91016 23.7031 8.35938 23.2344C8.82812 22.7852 9.0625 22.2383 9.0625 21.5938V19.25H10.9375V21.5938C10.9375 22.2383 11.1621 22.7852 11.6113 23.2344C12.0801 23.7031 12.6367 23.9375 13.2812 23.9375C13.9258 23.9375 14.4727 23.7031 14.9219 23.2344C15.3906 22.7852 15.625 22.2383 15.625 21.5938V18.8398C16.25 18.4297 16.5625 17.9414 16.5625 17.375V8C16.5625 6.96484 16.3281 5.98828 15.8594 5.07031C15.4102 4.15234 14.7852 3.39062 13.9844 2.78516L15.3613 0.792969C15.4785 0.636719 15.4883 0.470703 15.3906 0.294922C15.3125 0.119141 15.1758 0.03125 14.9805 0.03125H14.8926C14.7559 0.0703125 14.6582 0.148438 14.5996 0.265625L13.1934 2.25781C12.2168 1.71094 11.1523 1.4375 10 1.4375C8.84766 1.4375 7.7832 1.71094 6.80664 2.25781L5.40039 0.265625C5.32227 0.109375 5.19531 0.03125 5.01953 0.03125H4.87305ZM10 3.3125C11.1328 3.3125 12.1289 3.67383 12.9883 4.39648C13.8477 5.09961 14.3848 5.98828 14.5996 7.0625H5.40039C5.61523 5.98828 6.15234 5.09961 7.01172 4.39648C7.87109 3.67383 8.86719 3.3125 10 3.3125ZM8.125 4.25C7.87109 4.25 7.64648 4.34766 7.45117 4.54297C7.27539 4.71875 7.1875 4.93359 7.1875 5.1875C7.1875 5.44141 7.27539 5.66602 7.45117 5.86133C7.64648 6.03711 7.87109 6.125 8.125 6.125C8.37891 6.125 8.59375 6.03711 8.76953 5.86133C8.96484 5.66602 9.0625 5.44141 9.0625 5.1875C9.0625 4.93359 8.96484 4.71875 8.76953 4.54297C8.59375 4.34766 8.37891 4.25 8.125 4.25ZM11.875 4.25C11.6211 4.25 11.3965 4.34766 11.2012 4.54297C11.0254 4.71875 10.9375 4.93359 10.9375 5.1875C10.9375 5.44141 11.0254 5.66602 11.2012 5.86133C11.3965 6.03711 11.6211 6.125 11.875 6.125C12.1289 6.125 12.3438 6.03711 12.5195 5.86133C12.7148 5.66602 12.8125 5.44141 12.8125 5.1875C12.8125 4.93359 12.7148 4.71875 12.5195 4.54297C12.3438 4.34766 12.1289 4.25 11.875 4.25ZM0.625 7.0625V16.4375H2.5V7.0625H0.625ZM17.5 7.0625V16.4375H19.375V7.0625H17.5ZM5.3125 8.9375H14.6875V17.375H13.75V21.5938C13.75 21.7305 13.7012 21.8477 13.6035 21.9453C13.5254 22.0234 13.418 22.0625 13.2812 22.0625C13.1445 22.0625 13.0273 22.0234 12.9297 21.9453C12.8516 21.8477 12.8125 21.7305 12.8125 21.5938V17.375H7.1875V21.5938C7.1875 21.7305 7.13867 21.8477 7.04102 21.9453C6.96289 22.0234 6.85547 22.0625 6.71875 22.0625C6.58203 22.0625 6.46484 22.0234 6.36719 21.9453C6.28906 21.8477 6.25 21.7305 6.25 21.5938V17.375H5.3125V8.9375Z" fill="black"/>
</svg>
