<svg width="30" height="18" viewBox="0 0 30 18" fill="none" xmlns="http://www.w3.org/2000/svg">
<path d="M0 0.3125V17.1875H30V0.3125H0ZM1.875 2.1875H28.125V15.3125H1.875V2.1875ZM11.25 5V10.1562C11.25 10.2539 11.1914 10.3613 11.0742 10.4785C10.9766 10.5762 10.8789 10.625 10.7812 10.625C10.6836 10.625 10.5762 10.5762 10.459 10.4785C10.3613 10.3613 10.3125 10.2539 10.3125 10.1562V9.6875H8.4375V10.1562C8.4375 10.8008 8.66211 11.3574 9.11133 11.8262C9.58008 12.2754 10.1367 12.5 10.7812 12.5C11.4258 12.5 11.9727 12.2754 12.4219 11.8262C12.8906 11.3574 13.125 10.8008 13.125 10.1562V5H11.25ZM17.3438 5C16.6992 5 16.1426 5.23438 15.6738 5.70312C15.2246 6.15234 15 6.69922 15 7.34375C15 7.98828 15.2246 8.54492 15.6738 9.01367C16.1426 9.46289 16.6992 9.6875 17.3438 9.6875C17.4414 9.6875 17.5391 9.74609 17.6367 9.86328C17.7539 9.96094 17.8125 10.0586 17.8125 10.1562C17.8125 10.4688 17.6562 10.625 17.3438 10.625C17.1094 10.625 16.9727 10.5957 16.9336 10.5371C16.8945 10.4785 16.875 10.3809 16.875 10.2441H15C15 10.8887 15.1953 11.416 15.5859 11.8262C16.0156 12.2754 16.6016 12.5 17.3438 12.5C17.9883 12.5 18.5352 12.2656 18.9844 11.7969C19.4531 11.3281 19.6875 10.7812 19.6875 10.1562C19.6875 9.51172 19.4531 8.96484 18.9844 8.51562C18.5352 8.04688 17.9883 7.8125 17.3438 7.8125C17.2461 7.8125 17.1387 7.76367 17.0215 7.66602C16.9238 7.54883 16.875 7.44141 16.875 7.34375C16.875 7.24609 16.9238 7.14844 17.0215 7.05078C17.1387 6.93359 17.2461 6.875 17.3438 6.875C17.5195 6.875 17.6367 6.91406 17.6953 6.99219C17.7734 7.05078 17.8125 7.13867 17.8125 7.25586H19.6875C19.6875 6.65039 19.4824 6.13281 19.0723 5.70312C18.8574 5.48828 18.5938 5.32227 18.2812 5.20508C17.9883 5.06836 17.6758 5 17.3438 5Z" fill="black"/>
</svg>
