<svg width="122" height="79" viewBox="0 0 122 79" fill="none" xmlns="http://www.w3.org/2000/svg">
<path fill-rule="evenodd" clip-rule="evenodd" d="M7.75318 11.508C10.3476 15.1019 13.2543 17.5166 16.0929 19.9256C23.3045 26.0513 30.7196 31.9347 37.9777 38.007C43.6355 42.7357 49.1999 47.5786 54.7519 52.4319C56.0035 53.5212 57.0968 54.8147 58.14 56.1153C58.7379 56.856 59.2164 57.7468 59.5299 58.6505C60.213 60.6075 59.6064 62.296 57.7535 63.2426C56.67 63.7924 55.3895 64.2341 54.1913 64.2402C51.2794 64.2587 48.3252 64.2355 45.456 63.7883C39.9542 62.9407 34.5076 61.7505 29.0247 60.7671C24.6389 59.9828 20.2399 59.266 15.8371 58.5946C14.4962 58.3904 13.0948 58.181 11.622 58.7782C12.0406 61.5713 13.9423 63.2798 15.7463 64.9229C18.3125 67.2594 21.0794 69.3839 23.7924 71.5611C24.8751 72.4341 26.082 73.1459 27.1559 74.0334C28.515 75.1585 29.9777 76.2312 30.7024 78.329C30.0079 78.4233 29.4659 78.6561 29.0499 78.522C27.8654 78.1363 26.6607 77.7185 25.5949 77.0987C20.5391 74.1562 15.6194 71.0001 11.1411 67.2174C8.99654 65.4046 7.08144 63.3555 6.21301 60.6047C5.88349 59.5738 5.69548 58.4022 5.82555 57.3488C6.04423 55.6011 7.06042 54.3057 8.76424 53.5906C10.6224 52.8084 12.5691 52.6554 14.509 52.9024C18.3744 53.3874 22.2454 53.8959 26.0725 54.6104C32.6412 55.8376 39.1741 57.264 45.7355 58.5326C48.1829 59.0053 50.6582 59.4193 53.0822 59.1233C53.7674 58.2273 53.1635 57.6959 52.7047 57.253C50.1076 54.7384 47.5965 52.1089 44.8267 49.7896C36.289 42.6446 27.6278 35.6534 19.056 28.5513C14.554 24.8238 10.0159 21.12 6.08895 16.7656C4.78324 15.3208 3.59654 13.7754 2.39344 12.2439C1.96969 11.7009 1.58193 11.0923 1.32203 10.4602C0.161962 7.63911 1.7306 5.25718 4.7624 5.44713C6.39777 5.55025 8.07947 5.96623 9.61178 6.57182C12.9753 7.90348 16.3084 9.32418 19.5506 10.9203C36.1485 19.1089 52.7105 27.3631 69.2895 35.5958C73.7758 37.8229 78.2574 40.061 82.7579 42.2549C83.7179 42.7247 84.7601 43.0335 85.7249 43.4007C86.3931 42.5261 85.6786 42.2219 85.3826 41.93C80.991 37.6587 76.5872 33.3978 72.1574 29.1729C65.8052 23.1232 59.1572 17.373 53.6525 10.4944C52.4509 8.98964 51.3432 7.32119 50.5982 5.55731C49.4037 2.73719 51.161 0.561871 54.2619 0.791966C55.2247 0.865249 56.1987 1.07673 57.1115 1.38231C58.8259 1.95362 60.5549 2.5338 62.1806 3.29982C66.3346 5.25865 70.4839 7.22854 74.551 9.35936C85.1524 14.9078 95.6994 20.5586 106.292 26.1216C108.875 27.4792 111.54 28.6834 114.204 29.8953C114.91 30.214 115.727 30.2904 116.396 30.4572C116.979 29.6403 116.523 29.2091 116.206 28.801C114.335 26.3627 112.319 24.0685 109.796 22.2583C108.67 21.4503 107.529 20.6335 106.542 19.6656C106.172 19.3026 106.232 18.4989 106.018 17.5388C107.194 17.7559 108.09 17.7092 108.75 18.0812C113.297 20.6224 117.312 23.7902 120.187 28.2315C121.302 29.9502 122.182 31.7827 120.731 33.6214C119.429 35.2781 117.458 35.0437 115.696 34.5333C113.566 33.9194 111.432 33.2098 109.433 32.2522C104.789 30.0386 100.207 27.689 95.6278 25.3359C85.9722 20.3819 76.3445 15.3692 66.6802 10.4297C64.2036 9.16492 61.645 8.06106 59.0993 6.93926C58.529 6.68916 57.8626 6.67517 57.2023 6.54338C56.9748 8.12254 58.0081 8.81207 58.7184 9.57745C61.2724 12.3325 63.8327 15.1034 66.5405 17.7074C72.4647 23.4007 78.5359 28.9346 84.4314 34.6521C87.0284 37.1667 89.4 39.9141 91.7482 42.6672C92.5263 43.5794 93.1117 44.7882 93.4106 45.9577C93.8794 47.7861 92.6939 49.3725 90.8079 49.4391C89.4537 49.4855 87.9961 49.3095 86.7346 48.8411C83.8672 47.78 81.0327 46.5996 78.2885 45.2513C64.0463 38.2678 49.8406 31.211 35.6084 24.1978C28.1204 20.5092 20.6242 16.8276 13.0995 13.2123C11.6506 12.5221 10.232 11.5599 7.75318 11.508Z" fill="#EC7161"/>
</svg>
