<svg width="69" height="69" viewBox="0 0 69 69" fill="none" xmlns="http://www.w3.org/2000/svg">
<g clip-path="url(#clip0_163_5021)">
<path d="M8.11404 16.4029C8.31654 19.8935 8.51588 23.3876 8.6479 26.8822C8.77636 30.3736 8.8377 33.8689 8.75078 37.3625C8.70466 39.3283 8.61117 41.2901 8.46023 43.2485C8.48001 43.0049 8.49643 42.7615 8.5164 42.5213C8.07156 48.241 7.09497 53.9068 5.49341 59.4198C5.0459 60.9606 4.55043 62.4874 4.01354 63.9963C4.09172 63.773 4.17009 63.553 4.25182 63.3328C4.11848 63.7109 3.97824 64.0859 3.83819 64.4643C3.65797 64.7878 3.56971 65.1296 3.57361 65.493C3.51373 65.8601 3.551 66.2183 3.68245 66.5745C3.89298 67.1955 4.41874 67.8525 5.02375 68.1278C5.67373 68.4241 6.44858 68.5483 7.13391 68.2835C7.74989 68.043 8.44463 67.5892 8.68722 66.9422C9.87859 63.7426 10.9155 60.4911 11.7229 57.1719C12.4867 54.0336 13.0629 50.8522 13.449 47.6446C13.8699 44.1623 14.0976 40.6572 14.1838 37.1502C14.2649 33.8489 14.2211 30.5445 14.1069 27.2442C13.9926 23.9406 13.8109 20.6374 13.6224 17.3346C13.5989 16.9218 13.5753 16.5089 13.552 16.0994C13.5121 15.4013 13.1683 14.6868 12.6467 14.2215C12.15 13.7784 11.3544 13.4669 10.6781 13.5358C9.9783 13.606 9.2598 13.8793 8.80019 14.441C8.34356 14.9957 8.07211 15.6678 8.11404 16.4029Z" fill="#EC7161"/>
<path d="M15.0339 14.8841C15.2011 14.9304 15.3638 14.985 15.5251 15.0471C15.3083 14.9625 15.0948 14.877 14.8771 14.7892C15.257 14.9423 15.6125 15.1443 15.9441 15.3847C15.7573 15.2461 15.5714 15.1107 15.3813 14.973C15.8687 15.3295 16.2935 15.76 16.6731 16.228C16.5254 16.0431 16.3787 15.8614 16.2287 15.6807C17.0939 16.7541 17.7225 17.99 18.3377 19.2158C19.1221 20.7743 19.8783 22.3443 20.6097 23.925C21.0256 24.8233 21.4328 25.7277 21.8304 26.6348C21.7311 26.4115 21.6351 26.1873 21.5368 25.9672C22.7293 28.6886 23.8471 31.442 24.8861 34.2251C25.1771 35.0054 25.4617 35.7876 25.7399 36.5717C25.8311 36.9372 26.0021 37.2519 26.2561 37.5146C26.4557 37.807 26.7143 38.0369 27.0384 38.2026C27.3477 38.3899 27.6808 38.4899 28.0369 38.4994C28.3977 38.574 28.7551 38.5516 29.11 38.4354C29.7769 38.212 30.417 37.7864 30.7409 37.1369C31.0509 36.5124 31.2148 35.7446 30.9738 35.0653C29.5868 31.1579 28.0332 27.316 26.3565 23.52C25.5726 21.7445 24.7541 19.9824 23.906 18.2394C23.4804 17.3683 23.0516 16.4982 22.6075 15.636C22.2737 14.9869 21.9248 14.3456 21.5223 13.7373C21.173 13.2046 20.7763 12.7135 20.3731 12.2244C20.126 11.9247 19.8589 11.6412 19.5643 11.3831C18.6303 10.5569 17.5716 9.94156 16.3661 9.60632C16.0108 9.50218 15.6579 9.49178 15.3043 9.57605C14.9331 9.59894 14.5921 9.71459 14.2738 9.92163C13.9578 10.1 13.7052 10.3407 13.5202 10.6458C13.2889 10.9118 13.1334 11.2224 13.056 11.5735C12.911 12.273 12.9614 13.0561 13.3713 13.6658C13.7839 14.2607 14.3334 14.6868 15.0339 14.8841Z" fill="#EC7161"/>
<path d="M24.183 8.29482C24.1991 8.25586 24.2125 8.21902 24.2306 8.18266C24.1181 8.39082 24.0081 8.59686 23.9003 8.8055C23.9361 8.73753 23.9808 8.67528 24.0324 8.61612C23.8656 8.79471 23.6967 8.97069 23.5324 9.14717C23.5857 9.09535 23.6431 9.04876 23.7069 9.01C23.4977 9.13637 23.2907 9.26536 23.0841 9.38961C23.1631 9.34287 23.2427 9.31293 23.3291 9.2861C23.1022 9.35326 22.8779 9.4183 22.6515 9.48072C22.7868 9.44464 22.9221 9.43007 23.0612 9.42546C22.8287 9.43228 22.5987 9.43697 22.3641 9.44117C22.5914 9.4386 22.8127 9.47124 23.0367 9.52329C22.8105 9.46863 22.5865 9.41658 22.3578 9.36403C22.6865 9.44373 22.9929 9.57609 23.301 9.71579C23.6618 9.87771 24.0221 10.0444 24.3792 10.2179C25.0851 10.5544 25.7842 10.9094 26.475 11.2754C26.269 11.1655 26.0608 11.053 25.8522 10.9451C27.5005 11.8246 29.1063 12.7904 30.656 13.8364C32.1967 14.8767 33.6859 15.9977 35.1126 17.191C35.9237 17.8708 36.7155 18.5748 37.4885 19.2984C37.3099 19.1316 37.1339 18.9627 36.9575 18.7985C37.4383 19.2526 37.9135 19.7156 38.3803 20.1898C38.607 20.4907 38.8873 20.7135 39.2238 20.8562C39.5218 21.0474 39.8496 21.1581 40.2126 21.184C40.5705 21.2357 40.9163 21.1977 41.2478 21.0673C41.6091 20.9951 41.9293 20.8349 42.2107 20.5893C42.7373 20.1232 43.1604 19.4814 43.2049 18.757C43.1981 18.5245 43.1934 18.2945 43.1892 18.0598C43.113 17.5763 42.9194 17.1402 42.6129 16.7568C40.2545 14.3668 37.7173 12.1566 34.9833 10.2054C32.2583 8.26 29.3481 6.5773 26.3298 5.1295C25.9315 4.93738 25.5302 4.75211 25.1284 4.57156C24.5827 4.32582 24.0225 4.17416 23.4264 4.06895C22.6379 3.92933 21.8631 4.0469 21.1167 4.30604C21.0423 4.33175 20.9769 4.36317 20.9088 4.3967C20.7032 4.5115 20.4459 4.66392 20.2552 4.79699C20.2139 4.82614 20.1774 4.85579 20.1403 4.89017C19.6649 5.32339 19.325 5.76358 19.1012 6.37363C18.9638 6.70587 18.9114 7.04698 18.9511 7.40008C18.9283 7.75623 18.9978 8.0981 19.1549 8.42521C19.2948 8.77921 19.5084 9.06918 19.8024 9.29824C20.0441 9.56964 20.3395 9.76299 20.6905 9.88087C21.3493 10.0954 22.1046 10.1407 22.7421 9.82718C23.38 9.50891 23.9258 8.99698 24.183 8.29482Z" fill="#EC7161"/>
</g>
<defs>
<clipPath id="clip0_163_5021">
<rect width="65.3935" height="64.9565" fill="white" transform="translate(0 3.72656) rotate(-3.26515)"/>
</clipPath>
</defs>
</svg>
