<svg width="59" height="60" viewBox="0 0 59 60" fill="none" xmlns="http://www.w3.org/2000/svg">
<path d="M57.002 10.771C56.1492 7.91278 54.8786 5.22675 53.5504 2.56649C53.3106 2.08513 52.9616 1.65118 52.6253 1.22709C52.4967 1.06426 52.2992 0.854445 51.9023 1.10973C51.9138 1.32264 51.8707 1.62195 51.9576 1.88101C52.2075 2.62662 52.4954 3.3606 52.7973 4.08779C53.5618 5.93665 54.4187 7.74857 55.0983 9.62844C56.5296 13.5865 56.8486 17.6649 56.15 21.8199C55.8474 23.6315 55.2968 25.3636 54.3386 26.9318C53.3315 28.579 51.984 29.834 49.9175 30.3624C49.8269 29.7739 49.7402 29.2526 49.6664 28.7295C49.3984 26.7805 48.8019 24.9556 47.7208 23.2954C47.1832 22.469 46.5277 21.7621 45.7122 21.2181C44.1666 20.1899 42.2554 20.5197 41.2301 22.0538C40.836 22.6436 40.5377 23.3477 40.3866 24.0423C39.5479 27.8596 41.8803 31.4446 45.6975 32.2621C46.4035 32.4131 47.1319 32.4703 47.977 32.5881C47.9306 33.1122 47.9274 33.4771 47.8602 33.8307C47.7265 34.5445 47.5899 35.2619 47.3967 35.9621C45.5885 42.5894 41.8031 47.9305 36.368 52.003C29.472 57.1706 21.6582 58.2464 13.3761 56.4149C12.0306 56.1174 10.6968 55.5957 9.47583 54.9535C7.60273 53.9685 5.83124 52.7903 4.01906 51.6917C3.03671 51.0956 2.06196 50.4819 1.06454 49.9092C0.836109 49.7777 0.508089 49.6165 0.24579 50.08C0.503888 50.7502 1.11773 51.1657 1.6563 51.611C4.04576 53.5868 6.58741 55.3529 9.36127 56.7402C10.6006 57.3585 11.9166 57.8958 13.2576 58.2219C21.7158 60.276 29.6194 59.03 36.8577 54.0695C39.5931 52.1942 41.786 49.7686 43.7904 47.1634C46.9219 43.0964 48.9427 38.5474 49.6444 33.4386C49.7012 33.0302 49.8 32.6279 49.875 32.2452C50.2918 32.078 50.6268 31.9414 50.9626 31.8113C53.2784 30.9085 54.9051 29.2439 56.0667 27.1029C56.9722 25.4361 57.4918 23.6306 57.7715 21.7577C58.339 18.0357 58.0765 14.3737 57.002 10.771ZM47.9935 30.6823C44.2526 30.9088 41.801 28.6987 41.9119 25.2794C41.9282 24.8022 42.0123 24.3127 42.1533 23.8553C42.6884 22.1055 44.1573 21.7483 45.4732 23.0493C45.8127 23.3856 46.0936 23.7906 46.3593 24.1926C47.5658 26.0161 48.1337 28.2506 47.9935 30.6823Z" fill="#EC7161"/>
</svg>
