<svg width="112" height="122" viewBox="0 0 112 122" fill="none" xmlns="http://www.w3.org/2000/svg">
<path fill-rule="evenodd" clip-rule="evenodd" d="M56.1301 93.1044C56.6052 93.5568 57.0494 93.9893 57.499 94.4106C67.4461 103.71 79.0555 106.959 92.3389 103.84C97.6908 102.583 102.663 100.393 107.079 97.0587C107.852 96.4729 108.529 95.7481 109.181 95.0235C109.372 94.8102 109.484 94.3194 109.371 94.0781C109.131 93.5629 108.584 93.707 108.196 93.8867C107.554 94.1845 106.936 94.5519 106.347 94.9499C100.292 99.027 93.5751 101.417 86.3613 102.037C76.5661 102.876 67.8435 100.007 60.4117 93.4649C60.2113 93.2889 60.0104 93.1096 59.8312 92.9131C59.7144 92.784 59.6369 92.6142 59.472 92.3493C59.8737 91.6515 60.7129 91.5057 61.3549 91.1348C64.2711 89.4388 66.3118 87.0117 67.218 83.7771C68.362 79.6806 67.7534 75.7994 65.1789 72.3397C63.6668 70.305 61.579 69.1335 59.0625 68.8767C55.0277 68.4655 51.5386 70.9266 50.3877 74.93C49.7611 77.1153 49.714 79.3296 50.154 81.5621C50.6048 83.8662 51.4471 86.0144 52.6169 88.0442C53.006 88.7151 53.3567 89.4092 53.6943 90.0389C53.2717 90.6422 52.7927 90.445 52.3839 90.4151C48.4697 90.1116 44.9302 88.6713 41.5669 86.7515C38.4477 84.9733 35.6687 82.74 33.0585 80.2828C27.4116 74.9611 22.8719 68.7879 19.1465 62.0193C12.6512 50.2194 7.81131 37.7619 4.66986 24.6543C4.00575 21.8764 3.41857 19.0765 2.77834 16.295C2.63977 15.6914 2.48843 15.0723 2.22144 14.5192C2.09118 14.2526 1.62019 13.9217 1.40651 13.9848C1.04241 14.0913 0.628425 14.4249 0.473899 14.7687C0.306386 15.1423 0.35659 15.6439 0.414203 16.0782C0.71133 18.3807 0.86672 20.7148 1.37956 22.9678C4.75031 37.7813 10.0414 51.8664 17.5927 65.0713C21.0688 71.1482 25.2519 76.705 30.297 81.5896C33.0008 84.2073 35.8633 86.6269 39.096 88.5591C44.3308 91.6721 49.8438 93.8196 56.1301 93.1044ZM57.2623 89.7489C54.4285 86.9832 52.3876 82.2132 52.5465 78.5004C52.5916 77.4441 52.7427 76.3511 53.0827 75.3556C54.3447 71.6774 58.3884 70.4379 61.5747 72.6909C62.9343 73.6533 63.807 74.9741 64.3513 76.5251C66.6891 83.2211 62.3984 88.87 57.2623 89.7489Z" fill="#EC7161"/>
<path fill-rule="evenodd" clip-rule="evenodd" d="M35.7264 71.0991C36.124 70.89 36.5501 70.8022 36.6682 70.565C36.7969 70.3052 36.7469 69.828 36.5816 69.584C36.2344 69.0778 35.79 68.6208 35.3283 68.2118C30.3859 63.807 26.6035 58.5533 23.9151 52.5231C22.4977 49.3446 21.221 46.1033 19.8362 42.9094C19.4863 42.1036 19.0041 41.3454 18.4865 40.6309C18.3371 40.423 17.8069 40.3031 17.5534 40.4035C17.2937 40.5084 17.0138 40.9231 17.0047 41.2139C16.9766 41.9155 17.0091 42.6499 17.1832 43.3284C18.2136 47.3037 19.3288 51.2629 21.0035 55.0239C23.6786 61.0351 27.7894 65.8948 33.1593 69.6815C33.9416 70.2312 34.8464 70.6197 35.7264 71.0991Z" fill="#EC7161"/>
<path fill-rule="evenodd" clip-rule="evenodd" d="M81.3465 111.269C84.6944 111.866 87.9182 111.418 91.0055 110.052C91.8065 109.696 92.5436 109.168 93.2368 108.626C93.446 108.462 93.5458 107.938 93.4496 107.667C93.3594 107.411 92.9582 107.244 92.6643 107.096C92.521 107.024 92.3129 107.054 92.1395 107.084C87.8226 107.799 83.4705 107.902 79.1069 107.788C78.6626 107.777 78.2152 107.816 77.7772 107.87C77.2232 107.942 76.7466 108.16 76.5775 108.757C76.427 109.292 76.7593 109.838 77.5054 110.191C77.9855 110.42 78.4889 110.617 79.0007 110.753C79.7703 110.96 80.5615 111.1 81.3465 111.269Z" fill="#EC7161"/>
</svg>
