<svg width="35" height="39" viewBox="0 0 35 39" fill="none" xmlns="http://www.w3.org/2000/svg">
<mask id="path-1-inside-1_163_3287" fill="white">
<path d="M10.3422 37.8477C9.91496 38.4808 9.05219 38.6513 8.44825 38.1837C6.53325 36.701 4.88375 34.8989 3.57415 32.8536C2.01561 30.4194 0.97142 27.6922 0.505791 24.8395C0.0401621 21.9869 0.162935 19.0692 0.866558 16.2658C1.57018 13.4623 2.83979 10.8325 4.59732 8.53781C6.35484 6.24317 8.56314 4.33226 11.0865 2.92258C13.6098 1.5129 16.3947 0.634234 19.2702 0.340608C22.1456 0.046985 25.0507 0.344606 27.8068 1.21518C30.1227 1.94669 32.2924 3.06974 34.2227 4.53234C34.8315 4.99361 34.8917 5.87099 34.3917 6.4484C33.8917 7.02582 33.0212 7.08393 32.4079 6.62865C30.766 5.40969 28.9299 4.47056 26.9737 3.85269C24.5773 3.09573 22.0513 2.83695 19.5512 3.09226C17.051 3.34756 14.6295 4.11156 12.4355 5.33727C10.2415 6.56298 8.32134 8.2245 6.79318 10.2197C5.26502 12.2149 4.1611 14.5015 3.54931 16.9391C2.93751 19.3767 2.83076 21.9136 3.23562 24.3939C3.64048 26.8743 4.5484 29.2456 5.90355 31.3621C7.0097 33.0897 8.39475 34.6178 9.99938 35.8854C10.5987 36.3589 10.7694 37.2145 10.3422 37.8477Z"/>
</mask>
<path d="M10.3422 37.8477C9.91496 38.4808 9.05219 38.6513 8.44825 38.1837C6.53325 36.701 4.88375 34.8989 3.57415 32.8536C2.01561 30.4194 0.97142 27.6922 0.505791 24.8395C0.0401621 21.9869 0.162935 19.0692 0.866558 16.2658C1.57018 13.4623 2.83979 10.8325 4.59732 8.53781C6.35484 6.24317 8.56314 4.33226 11.0865 2.92258C13.6098 1.5129 16.3947 0.634234 19.2702 0.340608C22.1456 0.046985 25.0507 0.344606 27.8068 1.21518C30.1227 1.94669 32.2924 3.06974 34.2227 4.53234C34.8315 4.99361 34.8917 5.87099 34.3917 6.4484C33.8917 7.02582 33.0212 7.08393 32.4079 6.62865C30.766 5.40969 28.9299 4.47056 26.9737 3.85269C24.5773 3.09573 22.0513 2.83695 19.5512 3.09226C17.051 3.34756 14.6295 4.11156 12.4355 5.33727C10.2415 6.56298 8.32134 8.2245 6.79318 10.2197C5.26502 12.2149 4.1611 14.5015 3.54931 16.9391C2.93751 19.3767 2.83076 21.9136 3.23562 24.3939C3.64048 26.8743 4.5484 29.2456 5.90355 31.3621C7.0097 33.0897 8.39475 34.6178 9.99938 35.8854C10.5987 36.3589 10.7694 37.2145 10.3422 37.8477Z" stroke="#EC7161" stroke-width="4" mask="url(#path-1-inside-1_163_3287)"/>
</svg>
