<svg width="35" height="34" viewBox="0 0 35 34" fill="none" xmlns="http://www.w3.org/2000/svg">
<path d="M7.79681 7.10612C7.80282 7.09424 7.9851 7.1733 8.32347 7.33605C8.66002 7.50535 9.15446 7.75179 9.78957 8.07109C11.0543 8.73529 12.8788 9.69395 15.1317 10.879C19.6273 13.2842 25.8049 16.6789 32.5644 20.5748C32.8552 20.7433 33.0395 21.0279 33.0874 21.3373L33.0932 21.3731L33.2092 22.15C33.291 22.708 32.9399 23.2315 32.405 23.3691L32.3705 23.3784C30.736 23.7969 29.0804 24.266 27.4192 24.7844C23.5911 25.9632 19.8467 27.416 16.2226 29.1267C13.6736 30.3187 11.2729 31.5949 9.04346 32.8924C8.51129 33.2075 7.82436 33.032 7.50973 32.5007C7.32851 32.1952 7.31478 31.821 7.43165 31.5131C9.96316 25.1561 10.256 19.144 9.99805 15.0213C9.7444 10.8636 9.11906 8.44739 9.59859 8.32201C10.0247 8.16059 11.1972 10.5006 11.7855 14.8521C12.3698 19.1613 12.1614 25.5581 9.51903 32.344L7.89832 30.9558C10.1726 29.6079 12.6282 28.282 15.237 27.0367C18.9571 25.2807 22.8034 23.7886 26.7376 22.577C28.4505 22.0594 30.1607 21.6062 31.8487 21.2178L31.0082 22.4468L30.9131 21.667L31.4419 22.4653C24.7932 18.3823 18.8632 14.5774 14.6039 11.7756C12.4889 10.359 10.7748 9.21149 9.58745 8.41488C9.00571 8.00473 8.55325 7.68704 8.2443 7.46906C7.9407 7.24931 7.78662 7.12334 7.79681 7.10612Z" fill="#EC7161"/>
</svg>
