<svg width="27" height="27" viewBox="0 0 27 27" fill="none" xmlns="http://www.w3.org/2000/svg">
<mask id="path-1-inside-1_163_3289" fill="white">
<path d="M20.6253 0.815639C20.9891 0.415791 21.6108 0.38441 21.986 0.773493C23.176 2.0072 24.1474 3.43757 24.8559 5.00362C25.6991 6.86737 26.1523 8.8839 26.1874 10.9292C26.2225 12.9746 25.8389 15.0055 25.0602 16.8971C24.2814 18.7887 23.124 20.501 21.659 21.9288C20.1941 23.3566 18.4526 24.4696 16.5416 25.1995C14.6306 25.9294 12.5905 26.2607 10.5468 26.173C8.50303 26.0854 6.4988 25.5806 4.65733 24.6897C3.11 23.9412 1.70507 22.9334 0.502334 21.7121C0.123022 21.327 0.170364 20.7064 0.579425 20.353C0.988486 19.9996 1.60409 20.0477 1.98715 20.4291C3.01276 21.4503 4.20287 22.2953 5.50982 22.9275C7.11097 23.7021 8.85364 24.141 10.6307 24.2172C12.4077 24.2935 14.1815 24.0054 15.8431 23.3708C17.5047 22.7361 19.019 21.7684 20.2927 20.5269C21.5665 19.2855 22.5729 17.7966 23.25 16.1519C23.9271 14.5071 24.2606 12.7413 24.2301 10.9628C24.1995 9.18444 23.8056 7.43108 23.0724 5.81055C22.4739 4.48779 21.6598 3.27636 20.6653 2.22486C20.2938 1.83212 20.2616 1.21548 20.6253 0.815639Z"/>
</mask>
<path d="M20.6253 0.815639C20.9891 0.415791 21.6108 0.38441 21.986 0.773493C23.176 2.0072 24.1474 3.43757 24.8559 5.00362C25.6991 6.86737 26.1523 8.8839 26.1874 10.9292C26.2225 12.9746 25.8389 15.0055 25.0602 16.8971C24.2814 18.7887 23.124 20.501 21.659 21.9288C20.1941 23.3566 18.4526 24.4696 16.5416 25.1995C14.6306 25.9294 12.5905 26.2607 10.5468 26.173C8.50303 26.0854 6.4988 25.5806 4.65733 24.6897C3.11 23.9412 1.70507 22.9334 0.502334 21.7121C0.123022 21.327 0.170364 20.7064 0.579425 20.353C0.988486 19.9996 1.60409 20.0477 1.98715 20.4291C3.01276 21.4503 4.20287 22.2953 5.50982 22.9275C7.11097 23.7021 8.85364 24.141 10.6307 24.2172C12.4077 24.2935 14.1815 24.0054 15.8431 23.3708C17.5047 22.7361 19.019 21.7684 20.2927 20.5269C21.5665 19.2855 22.5729 17.7966 23.25 16.1519C23.9271 14.5071 24.2606 12.7413 24.2301 10.9628C24.1995 9.18444 23.8056 7.43108 23.0724 5.81055C22.4739 4.48779 21.6598 3.27636 20.6653 2.22486C20.2938 1.83212 20.2616 1.21548 20.6253 0.815639Z" stroke="#333333" stroke-width="4" mask="url(#path-1-inside-1_163_3289)"/>
</svg>
