<svg width="252" height="22" viewBox="0 0 252 22" fill="none" xmlns="http://www.w3.org/2000/svg">
<path d="M231.876 5.14958C226.384 4.9094 220.892 4.73285 215.401 4.528C213.589 4.45736 211.767 4.45734 209.956 4.42202C206.022 4.34432 202.088 4.27368 198.155 4.19597C195.968 4.15359 193.771 4.10415 191.583 4.06883C190.945 4.06177 190.316 4.05469 189.678 4.05469C188.251 4.05469 186.824 4.06884 185.397 4.0759C178.91 4.08296 172.413 4.09 165.926 4.09C164.377 4.09 162.838 4.11829 161.289 4.13242C157.458 4.16774 153.637 4.21011 149.817 4.24543C145.498 4.28781 141.189 4.30194 136.871 4.38671C129.886 4.51386 122.911 4.64806 115.926 4.77521C111.88 4.85292 107.843 4.89532 103.797 5.0154C96.8313 5.22732 89.8748 5.43213 82.909 5.63698C79.1069 5.75 75.2954 5.84185 71.4933 6.00432C64.2928 6.30806 57.0923 6.60476 49.8918 6.90851C46.0427 7.07098 42.1937 7.19106 38.354 7.4383C31.1817 7.89745 24.0187 8.35656 16.8463 8.81571C15.2973 8.91461 13.7483 9.01353 12.1993 9.11243C9.10133 9.31021 6.0221 9.621 2.93348 9.88236C2.73633 9.90355 2.54857 9.92476 2.35143 9.93888C1.9853 10.0166 1.65672 10.1578 1.38447 10.3627C0.98079 10.6664 0.746094 11.0903 0.746094 11.5212C0.746094 11.9521 0.98079 12.3759 1.38447 12.6867C1.7506 12.9622 2.38898 13.2165 2.93348 13.1671C6.66047 12.8492 10.3781 12.5172 14.1145 12.277C17.5786 12.058 21.0334 11.832 24.4975 11.613C28.2714 11.3728 32.0454 11.1327 35.8193 10.8925C37.3401 10.7936 38.861 10.6665 40.3912 10.6029C46.2774 10.3557 52.1636 10.1155 58.0499 9.86826C61.7205 9.71286 65.3912 9.5645 69.0619 9.4091C70.5733 9.34552 72.0942 9.26781 73.615 9.21836C79.4449 9.04176 85.2842 8.87932 91.114 8.71685C94.6533 8.61796 98.1831 8.51201 101.722 8.41311C102.915 8.37779 104.098 8.3354 105.29 8.31421C111.589 8.20119 117.888 8.09521 124.188 7.98926C127.708 7.92568 131.219 7.86916 134.74 7.80559C135.988 7.7844 137.246 7.7491 138.495 7.74204C144.991 7.69259 151.488 7.64313 157.984 7.59368C162.04 7.55836 166.086 7.5301 170.141 7.53716C177.042 7.55129 183.942 7.55839 190.832 7.57251C192.194 7.57251 193.555 7.61489 194.916 7.6502C198.728 7.73497 202.53 7.81973 206.341 7.90449C209.195 7.96807 212.058 8.03166 214.912 8.09523C216.94 8.13761 218.959 8.25061 220.986 8.33538C226.948 8.57555 232.909 8.82987 238.861 9.10536C240.372 9.17599 241.884 9.26074 243.395 9.3455C245.019 9.43733 246.643 9.5221 248.258 9.65631C248.512 9.68457 248.756 9.7199 249.009 9.76229C249.648 9.86118 250.258 9.83293 250.83 9.58569C251.356 9.35258 251.75 8.96407 251.919 8.51904C252.257 7.58662 251.506 6.59063 250.267 6.32927C249.178 6.10323 248.052 6.01139 246.934 5.92662C246.165 5.87011 245.404 5.80654 244.634 5.75003C243.161 5.63701 241.677 5.58051 240.203 5.49574C237.434 5.36859 234.655 5.27672 231.876 5.14958Z" fill="#EC7161"/>
<path d="M231.342 12.1784C225.881 11.6782 220.415 11.2416 214.951 10.7767C213.149 10.6203 211.331 10.5339 209.526 10.4127C205.607 10.1487 201.687 9.89161 197.768 9.62753C195.588 9.4815 193.4 9.32798 191.22 9.189C190.584 9.15168 189.956 9.11479 189.319 9.08451C187.895 9.01685 186.47 8.9633 185.045 8.90268C178.57 8.6021 172.086 8.30104 165.612 7.99342C164.066 7.91996 162.527 7.87519 160.98 7.81583C157.155 7.66944 153.338 7.53053 149.522 7.38458C145.208 7.22209 140.907 7.03186 136.59 6.91166C129.608 6.70734 122.636 6.5105 115.654 6.30617C111.61 6.19184 107.577 6.04272 103.529 5.97069C96.5594 5.85185 89.5996 5.72637 82.6305 5.60048C78.8265 5.53297 75.0149 5.44388 71.2067 5.42573C63.995 5.3874 56.784 5.34205 49.5723 5.30373C45.7173 5.28335 41.8659 5.22066 38.0131 5.28532C30.8165 5.40343 23.6293 5.52195 16.4328 5.64006C14.8786 5.6653 13.3243 5.69057 11.7701 5.71581C8.6617 5.76629 5.56254 5.93043 2.45815 6.04481C2.25962 6.05661 2.07046 6.06886 1.87252 6.07362C1.50061 6.1338 1.16084 6.2592 0.871962 6.45073C0.443622 6.73473 0.173861 7.1466 0.137738 7.57663C0.101615 8.00667 0.300312 8.44081 0.677133 8.77014C1.01944 9.06244 1.63523 9.3465 2.18279 9.32298C5.92902 9.18248 9.66707 9.02743 13.4162 8.96492C16.8918 8.91065 20.3586 8.84889 23.8342 8.79462C27.6207 8.7339 31.4073 8.67316 35.1939 8.61243C36.72 8.58586 38.2484 8.5311 39.781 8.54022C45.6762 8.57261 51.5708 8.61207 57.4661 8.64447C61.1425 8.66344 64.8183 8.68945 68.4946 8.70842C70.0084 8.71665 71.5327 8.71121 73.0547 8.73399C78.8878 8.83421 84.7291 8.949 90.561 9.06332C94.1015 9.13246 97.6332 9.19411 101.174 9.26325C102.367 9.28454 103.551 9.29833 104.742 9.33372C111.038 9.51964 117.334 9.71261 123.63 9.90558C127.149 10.0091 130.657 10.1192 134.176 10.2227C135.424 10.2607 136.682 10.2852 137.929 10.3373C144.417 10.5961 150.904 10.8548 157.392 11.1135C161.443 11.2706 165.483 11.4342 169.53 11.6336C176.415 11.9749 183.301 12.3092 190.177 12.6501C191.535 12.7147 192.89 12.8215 194.246 12.9213C198.043 13.1866 201.83 13.4515 205.627 13.7169C208.47 13.9157 211.322 14.1149 214.165 14.3137C216.185 14.4522 218.19 14.6606 220.207 14.8414C226.136 15.3638 232.064 15.9003 237.981 16.4575C239.484 16.5997 240.985 16.7559 242.486 16.9122C244.1 17.0809 245.713 17.2425 247.314 17.453C247.564 17.4932 247.805 17.5401 248.054 17.5944C248.683 17.7233 249.295 17.7241 249.887 17.5045C250.431 17.2968 250.857 16.9277 251.063 16.4916C251.479 15.5771 250.812 14.5475 249.598 14.2278C248.53 13.9506 247.413 13.8055 246.305 13.668C245.542 13.5751 244.788 13.4755 244.025 13.3826C242.563 13.2 241.088 13.0732 239.624 12.9187C236.87 12.6605 234.105 12.437 231.342 12.1784Z" fill="#EC7161"/>
</svg>
