<svg width="98" height="87" viewBox="0 0 98 87" fill="none" xmlns="http://www.w3.org/2000/svg">
<path fill-rule="evenodd" clip-rule="evenodd" d="M20.2942 39.5684C19.8284 39.9315 19.3843 40.2699 18.9496 40.6144C9.35148 48.2409 4.92039 58.1489 5.93889 70.391C6.34878 75.3232 7.64053 80.0413 10.0253 84.4148C10.4445 85.1815 11.0003 85.8799 11.5593 86.5566C11.7238 86.7553 12.1462 86.9198 12.3759 86.8515C12.8666 86.7056 12.8107 86.1996 12.702 85.8303C12.5219 85.2188 12.2766 84.6197 12.0002 84.0424C9.17138 78.1106 7.93241 71.8126 8.33609 65.3067C8.8857 56.4727 12.5964 49.0852 19.4061 43.3335C19.5893 43.1783 19.7756 43.0231 19.9743 42.8896C20.1048 42.8027 20.2662 42.7562 20.5239 42.6444C21.0922 43.0945 21.1108 43.8612 21.3561 44.482C22.4802 47.3035 24.3713 49.4422 27.1318 50.6775C30.6282 52.2389 34.165 52.2109 37.587 50.3765C39.5991 49.2994 40.9188 47.5953 41.4808 45.3883C42.3814 41.8498 40.6518 38.4168 37.2392 36.8617C35.3761 36.0143 33.4105 35.6791 31.3642 35.7753C29.2526 35.8715 27.228 36.3371 25.2656 37.11C24.6166 37.3676 23.9521 37.588 23.3466 37.8053C22.8653 37.349 23.1044 36.9486 23.1851 36.5885C23.9738 33.1431 25.7251 30.1819 27.8801 27.4411C29.8768 24.8989 32.2336 22.7199 34.7674 20.7209C40.2543 16.3971 46.3529 13.172 52.8738 10.7509C64.2419 6.52947 75.9764 3.86936 88.0649 2.80779C90.6267 2.58431 93.1977 2.43221 95.7595 2.23045C96.3153 2.187 96.8867 2.13422 97.4146 1.96971C97.6692 1.88901 98.0263 1.51343 97.9984 1.31477C97.9518 0.976432 97.7096 0.563598 97.4239 0.38047C97.1134 0.181808 96.66 0.160087 96.2657 0.153885C94.1759 0.113533 92.0768 -0.0572051 90.0025 0.101097C76.3645 1.14094 63.1209 3.98731 50.3617 8.96301C44.4898 11.2538 38.9874 14.2429 33.9694 18.0887C31.2803 20.1498 28.7465 22.3785 26.5977 25.0013C23.1323 29.2507 20.4898 33.8756 20.2942 39.5684ZM23.1323 41.021C25.9704 38.8638 30.4885 37.678 33.7738 38.3113C34.7084 38.4913 35.6617 38.7706 36.5032 39.2052C39.6115 40.8162 40.1798 44.5813 37.7515 47.1204C36.7144 48.2037 35.4226 48.8058 33.9694 49.0852C27.6969 50.2802 23.2348 45.7112 23.1323 41.021Z" fill="#EC7161"/>
<path fill-rule="evenodd" clip-rule="evenodd" d="M42.5889 24.3071C42.7224 24.6889 42.7441 25.08 42.9398 25.2166C43.154 25.3656 43.5856 25.3842 43.8247 25.2694C44.3216 25.0273 44.7873 24.692 45.2128 24.3351C49.7898 20.5172 54.9692 17.8446 60.6952 16.2492C63.7134 15.408 66.7689 14.7003 69.7965 13.8901C70.5604 13.6853 71.2994 13.3563 72.0043 12.99C72.2092 12.8845 72.3862 12.4282 72.3303 12.1892C72.2713 11.9439 71.9391 11.6398 71.6814 11.5932C71.0603 11.4752 70.402 11.407 69.7748 11.4721C66.0982 11.8632 62.4248 12.3319 58.8538 13.3252C53.1465 14.9114 48.2745 17.9285 44.1912 22.2089C43.5981 22.8328 43.1323 23.587 42.5889 24.3071Z" fill="#EC7161"/>
<path fill-rule="evenodd" clip-rule="evenodd" d="M0.768834 59.6186C-0.20619 62.5208 -0.234138 65.451 0.573207 68.3811C0.784359 69.1416 1.15698 69.8679 1.54824 70.557C1.66623 70.765 2.11958 70.9233 2.3742 70.8736C2.6133 70.8271 2.81515 70.4919 2.98593 70.2497C3.06977 70.1318 3.06978 69.9424 3.06667 69.7841C3.00146 65.8452 3.48586 61.9559 4.1659 58.0852C4.23421 57.691 4.25906 57.2874 4.26837 56.8901C4.27769 56.3873 4.14726 55.9341 3.63801 55.7044C3.18155 55.4995 2.65056 55.723 2.23757 56.3407C1.97053 56.738 1.72833 57.1602 1.53891 57.5979C1.25324 58.2559 1.02346 58.9419 0.768834 59.6186Z" fill="#EC7161"/>
</svg>
