<svg width="54" height="49" viewBox="0 0 54 49" fill="none" xmlns="http://www.w3.org/2000/svg">
<g clip-path="url(#clip0_163_5047)">
<path d="M32.4488 8.25543L31.6211 7.20393L33.1551 5.24891C33.3297 5.02304 33.5955 4.89062 33.8765 4.89062H53.0662C53.3092 4.89062 53.5142 4.98409 53.6737 5.12429C53.7648 5.20218 53.8408 5.30344 53.8939 5.41248C53.985 5.59163 54.0154 5.79414 53.985 5.99665C53.985 6.00444 53.9774 6.01223 53.9774 6.02002C53.9623 6.11348 53.9243 6.21474 53.8787 6.30821C53.8483 6.35494 53.8256 6.40167 53.7876 6.44841L42.4044 21.0137L37.1874 14.3464L32.4488 8.25543Z" fill="white"/>
<path d="M53.9923 47.8929C54.0226 48.0954 53.9923 48.3057 53.9011 48.4848C53.848 48.5939 53.772 48.6873 53.6809 48.773C53.5214 48.9132 53.3164 49.0067 53.0734 49.0067H33.8837C33.6027 49.0067 33.3369 48.8743 33.1623 48.6484L27.8086 41.7941L32.456 35.8512L33.3825 34.6673L38.5995 28L53.81 47.4567C53.848 47.5034 53.8784 47.5501 53.9011 47.5969C53.9391 47.6903 53.9771 47.7916 53.9923 47.8929Z" fill="white"/>
<path d="M0.933902 44.1086H20.1236C20.4046 44.1086 20.6704 43.9762 20.8526 43.7503L27.034 35.8445L37.3541 22.6423C37.6275 22.2918 37.6275 21.8011 37.3541 21.4506L27.0264 8.26403L20.845 0.35829C20.6704 0.132411 20.4046 0 20.1236 0H0.933902C0.151733 0 -0.281118 0.92688 0.20489 1.54999L15.7192 21.3961C16.0229 21.7856 16.0229 22.3308 15.7192 22.7124L0.20489 42.5586C-0.281118 43.1895 0.151733 44.1086 0.933902 44.1086Z" fill="white"/>
</g>
<defs>
<clipPath id="clip0_163_5047">
<rect width="54" height="49" fill="white"/>
</clipPath>
</defs>
</svg>
