<svg width="109" height="51" viewBox="0 0 109 51" fill="none" xmlns="http://www.w3.org/2000/svg">
<path fill-rule="evenodd" clip-rule="evenodd" d="M60.0687 23.9174C61.2562 23.737 62.9378 23.4664 64.6195 23.2199C77.8438 21.2656 90.5317 17.6456 102.291 11.1632C104.063 10.1891 105.775 9.09466 107.463 7.98821C107.951 7.66951 108.283 7.09224 109 6.27443C107.939 6.11207 107.18 5.76329 106.589 5.94369C104.063 6.73144 101.502 7.48309 99.1088 8.58954C87.7892 13.8211 75.7704 16.3768 63.5104 18.0304C62.7751 18.1266 62.0217 18.0605 61.0452 18.0785C60.9126 16.6474 60.8644 15.4327 60.6835 14.23C59.6649 7.38688 55.7952 2.90096 49.1891 0.904544C43.8849 -0.694994 38.659 -0.123732 33.6864 2.22747C32.1674 2.94305 30.7329 4.02545 29.5455 5.2221C24.7355 10.0688 25.4588 17.0683 31.1005 20.9228C33.8491 22.799 36.9171 23.9656 40.2262 24.3143C42.8602 24.5849 45.5184 24.6511 48.1644 24.7593C49.394 24.8074 50.6236 24.7352 51.7508 24.7172C52.5163 25.992 51.6423 26.6535 51.1239 27.3029C48.9359 30.021 46.0247 31.8911 43.0652 33.6169C35.7538 37.8863 27.9361 40.9772 19.7448 43.1059C14.4586 44.4769 9.15443 45.7758 3.88036 47.1769C2.69897 47.4896 1.55976 48.0428 0.474808 48.6141C0.179466 48.7704 -0.0676346 49.4439 0.0167542 49.7987C0.101135 50.1715 0.553177 50.5985 0.938942 50.7428C1.50552 50.9472 2.1746 51.0555 2.76529 50.9713C17.3398 48.8967 31.7033 46.1065 44.7106 38.6801C48.1162 36.7378 51.4193 34.6392 54.0292 31.7047C56.0966 29.3835 57.8446 26.8098 60.0687 23.9174ZM55.0719 18.5355C50.3283 19.648 42.595 19.5879 38.4662 18.3972C36.5012 17.832 34.6447 17.0623 33.1861 15.559C31.6852 14.0075 31.4019 12.414 32.2157 10.4416C32.7822 9.08263 33.7526 8.13254 35.0184 7.44101C38.4119 5.5829 42.0344 4.93346 45.8499 5.5408C52.7755 6.62921 56.1207 11.3737 55.0719 18.5355Z" fill="#EC7161"/>
</svg>
