<svg width="27" height="27" viewBox="0 0 27 27" fill="none" xmlns="http://www.w3.org/2000/svg">
<path d="M0.796812 0.10612C0.802817 0.0942395 0.985105 0.173304 1.32347 0.336053C1.66002 0.505346 2.15446 0.751785 2.78957 1.07109C4.05433 1.73529 5.87876 2.69395 8.13169 3.87901C12.6273 6.28423 18.8049 9.67889 25.5644 13.5748C25.8552 13.7433 26.0395 14.0279 26.0874 14.3373L26.0932 14.3731L26.2092 15.15C26.291 15.708 25.9399 16.2315 25.405 16.3691L25.3705 16.3784C23.736 16.7969 22.0804 17.266 20.4192 17.7844C16.5911 18.9632 12.8467 20.416 9.22258 22.1267C6.67356 23.3187 4.27289 24.5949 2.04346 25.8924C1.51129 26.2075 0.824359 26.032 0.50973 25.5007C0.328505 25.1952 0.314784 24.821 0.431646 24.5131C2.96316 18.1561 3.25603 12.144 2.99805 8.02134C2.7444 3.86357 2.11906 1.44739 2.59859 1.32201C3.02474 1.16059 4.19717 3.50063 4.78547 7.85211C5.3698 12.1613 5.16143 18.5581 2.51903 25.344L0.898325 23.9558C3.17261 22.6079 5.62822 21.282 8.23699 20.0367C11.9571 18.2807 15.8034 16.7886 19.7376 15.577C21.4505 15.0594 23.1607 14.6062 24.8487 14.2178L24.0082 15.4468L23.9131 14.667L24.4419 15.4653C17.7932 11.3823 11.8632 7.57741 7.6039 4.77558C5.4889 3.35897 3.77483 2.21149 2.58745 1.41488C2.00571 1.00473 1.55325 0.687044 1.2443 0.469057C0.940702 0.249314 0.786617 0.123339 0.796812 0.10612Z" fill="#EC7161"/>
</svg>
