<svg width="71" height="43" viewBox="0 0 71 43" fill="none" xmlns="http://www.w3.org/2000/svg">
<path d="M62.9569 1.70785C62.8181 1.32158 62.8645 0.713336 63.0887 0.391108C63.4654 -0.141915 64.1069 -0.0259222 64.6564 0.232199C64.9133 0.351401 65.1617 0.515675 65.3735 0.70195C67.1856 2.30224 68.7122 4.16084 69.8988 6.25216C70.84 7.90836 70.2769 9.50624 68.4963 10.2983C65.562 11.6047 62.4164 11.9756 59.2357 12.0822C59.1425 12.0866 59.022 12.0782 58.9567 12.0251C58.6853 11.7903 58.2635 11.5607 58.2188 11.2791C58.1746 11.0028 58.454 10.485 58.7143 10.3853C59.8698 9.93853 61.0708 9.60411 62.2573 9.22957C63.2117 8.92575 64.2858 8.89833 65.1258 8.09128C64.8002 7.83609 64.5984 7.62019 64.349 7.49762C63.491 7.07359 62.6197 6.67174 61.7442 6.28072C53.6733 2.6903 45.4401 2.23534 37.0469 5.01188C34.2853 5.92587 31.7711 7.29557 29.5444 9.1819C28.138 10.3724 26.9183 11.7337 26.1255 13.3994C25.4355 14.8517 24.7258 16.3399 25.115 18.1414C26.8902 18.1275 28.6045 18.0784 30.3148 18.1155C32.6827 18.1733 34.8562 18.917 36.7723 20.2906C39.7843 22.4514 39.6056 25.5782 36.417 27.4699C36.2528 27.5675 36.0801 27.6581 35.9091 27.7407C30.255 30.3912 25.3563 28.1725 23.0836 23.8026C22.7884 23.2374 22.4359 22.6962 22.1329 22.1812C18.127 23.4133 13.7763 25.8644 10.219 28.7436C7.09356 31.2713 4.76107 34.3728 3.14777 38.0402C2.60864 39.2662 2.0427 40.4847 1.42725 41.677C1.23695 42.0503 0.848546 42.3192 0.246962 42.9665C-0.194247 41.2405 0.110254 40.1349 0.46317 39.0451C1.8468 34.7667 4.06481 31.0111 7.3807 27.9357C10.9361 24.6353 14.9811 22.0961 19.4074 20.1496C20.1913 19.8061 20.9785 19.4701 21.7056 19.1559C21.8343 18.4637 21.9718 17.9059 22.036 17.3453C22.4926 13.2327 24.3868 9.89276 27.4712 7.19495C29.1409 5.73277 30.9694 4.49872 32.9877 3.56507C38.5985 0.973744 44.4989 -0.0243206 50.6503 0.473431C54.5222 0.787244 58.1743 1.89363 61.6692 3.59366C62.4277 3.96032 63.1748 4.54404 64.2815 4.50546C63.7599 3.43551 63.2782 2.60076 62.9569 1.70785ZM25.3648 21.3618C25.859 23.7768 27.3568 25.1545 29.4697 25.7406C31.8964 26.4166 34.1189 25.8235 36.1317 24.032C35.2169 22.204 33.8139 21.7425 32.4733 21.3552C30.178 20.6917 27.8381 20.6284 25.3648 21.3618Z" fill="black"/>
</svg>
