<svg width="72" height="36" viewBox="0 0 72 36" fill="none" xmlns="http://www.w3.org/2000/svg">
<path d="M6.70575 9.04344C4.75917 11.3035 3.18297 13.8223 1.65957 16.3758C1.38365 16.8375 1.20657 17.3655 1.03087 17.8774C0.963171 18.0735 0.893054 18.353 1.32213 18.5495C1.49519 18.4249 1.77045 18.2997 1.94171 18.0868C2.43471 17.4742 2.89739 16.8358 3.34684 16.1893C4.49113 14.5482 5.55445 12.8491 6.7707 11.2628C9.33118 7.92232 12.5931 5.4535 16.4685 3.80015C18.1571 3.07768 19.9126 2.60686 21.7499 2.56764C23.6802 2.52701 25.4638 2.98449 27.0236 4.43942C26.577 4.8332 26.1848 5.1875 25.7842 5.5318C24.2877 6.80893 23.0729 8.29559 22.2583 10.1016C21.8525 11.0001 21.6108 11.9334 21.5928 12.9134C21.5608 14.7695 22.8696 16.2009 24.7145 16.2365C25.4237 16.2502 26.1775 16.1215 26.8438 15.874C30.5104 14.5209 32.2707 10.6229 30.8998 6.96784C30.646 6.29192 30.3013 5.64775 29.9444 4.8726C30.4108 4.62901 30.7198 4.43474 31.0538 4.30061C31.7269 4.02813 32.4047 3.75604 33.0984 3.54101C39.6542 1.48826 46.1934 1.79415 52.5546 4.17348C60.626 7.19203 65.7472 13.1908 68.6731 21.1524C69.1485 22.4459 69.4288 23.8504 69.5467 25.2249C69.7279 27.3334 69.6915 29.4606 69.7441 31.5791C69.7721 32.7279 69.7813 33.8797 69.8372 35.0285C69.8497 35.2917 69.8909 35.6549 70.4226 35.6257C70.8478 35.0468 70.8665 34.3058 70.9508 33.6121C71.3254 30.5343 71.4412 27.4415 71.113 24.3574C70.965 22.9804 70.7074 21.5824 70.2585 20.2774C67.425 12.0474 62.1121 6.06486 54.0305 2.6463C50.9758 1.35475 47.7504 0.816854 44.4755 0.534667C39.3616 0.0919907 34.4413 0.844578 29.761 3.00987C29.3866 3.18235 28.9945 3.3162 28.6318 3.45951C28.2662 3.19879 27.9705 2.99039 27.6798 2.77779C25.6703 1.31492 23.3911 0.843287 20.9618 1.0203C19.0698 1.15699 17.2692 1.69361 15.5414 2.46846C12.1013 3.99858 9.15951 6.19517 6.70575 9.04344ZM28.3309 5.88688C30.5398 8.91448 30.0015 12.1711 27.0626 13.9223C26.6519 14.166 26.1945 14.3593 25.7333 14.4873C23.9712 14.9808 22.8781 13.9367 23.2636 12.1268C23.3636 11.6596 23.553 11.2045 23.7482 10.7639C24.6327 8.76427 26.2078 7.08073 28.3309 5.88688Z" fill="#EC7161"/>
</svg>
