<svg width="112" height="123" viewBox="0 0 112 123" fill="none" xmlns="http://www.w3.org/2000/svg">
<path fill-rule="evenodd" clip-rule="evenodd" d="M56.1301 94.0966C56.6052 94.5489 57.0494 94.9815 57.499 95.4028C67.4461 104.702 79.0555 107.951 92.3389 104.832C97.6908 103.576 102.663 101.386 107.079 98.0509C107.852 97.4651 108.529 96.7403 109.181 96.0157C109.372 95.8024 109.484 95.3116 109.371 95.0703C109.131 94.5551 108.584 94.6992 108.196 94.8789C107.554 95.1767 106.936 95.5441 106.347 95.9421C100.292 100.019 93.5751 102.409 86.3613 103.029C76.5661 103.868 67.8435 100.999 60.4117 94.4571C60.2113 94.2811 60.0104 94.1018 59.8312 93.9053C59.7144 93.7762 59.6369 93.6064 59.472 93.3415C59.8737 92.6437 60.7129 92.4979 61.3549 92.127C64.2711 90.431 66.3118 88.0039 67.218 84.7692C68.362 80.6728 67.7534 76.7916 65.1789 73.3319C63.6668 71.2972 61.579 70.1257 59.0625 69.8688C55.0277 69.4577 51.5386 71.9188 50.3877 75.9222C49.7611 78.1075 49.714 80.3218 50.154 82.5542C50.6048 84.8584 51.4471 87.0066 52.6169 89.0364C53.006 89.7073 53.3567 90.4014 53.6943 91.0311C53.2717 91.6344 52.7927 91.4372 52.3839 91.4073C48.4697 91.1037 44.9302 89.6635 41.5669 87.7437C38.4477 85.9655 35.6687 83.7322 33.0585 81.275C27.4116 75.9533 22.8719 69.78 19.1465 63.0114C12.6512 51.2116 7.81131 38.7541 4.66986 25.6465C4.00575 22.8685 3.41857 20.0687 2.77834 17.2872C2.63977 16.6836 2.48843 16.0645 2.22144 15.5114C2.09118 15.2448 1.62019 14.9139 1.40651 14.977C1.04241 15.0835 0.628425 15.4171 0.473899 15.7609C0.306386 16.1345 0.35659 16.6361 0.414203 17.0704C0.71133 19.3729 0.86672 21.707 1.37956 23.96C4.75031 38.7735 10.0414 52.8585 17.5927 66.0635C21.0688 72.1404 25.2519 77.6972 30.297 82.5818C33.0008 85.1994 35.8633 87.6191 39.096 89.5513C44.3308 92.6643 49.8438 94.8118 56.1301 94.0966ZM57.2623 90.7411C54.4285 87.9754 52.3876 83.2054 52.5465 79.4926C52.5916 78.4363 52.7427 77.3433 53.0827 76.3478C54.3447 72.6696 58.3884 71.4301 61.5747 73.6831C62.9343 74.6455 63.807 75.9663 64.3513 77.5173C66.6891 84.2133 62.3984 89.8622 57.2623 90.7411Z" fill="#EC7161"/>
<path fill-rule="evenodd" clip-rule="evenodd" d="M35.7264 72.0912C36.124 71.8822 36.5501 71.7944 36.6682 71.5571C36.7969 71.2974 36.7469 70.8201 36.5816 70.5762C36.2344 70.0699 35.79 69.613 35.3283 69.2039C30.3859 64.7992 26.6035 59.5454 23.9151 53.5153C22.4977 50.3367 21.221 47.0954 19.8362 43.9016C19.4863 43.0958 19.0041 42.3376 18.4865 41.6231C18.3371 41.4151 17.8069 41.2952 17.5534 41.3957C17.2937 41.5006 17.0138 41.9153 17.0047 42.2061C16.9766 42.9077 17.0091 43.6421 17.1832 44.3206C18.2136 48.2959 19.3288 52.2551 21.0035 56.0161C23.6786 62.0273 27.7894 66.887 33.1593 70.6737C33.9416 71.2234 34.8464 71.6119 35.7264 72.0912Z" fill="#EC7161"/>
<path fill-rule="evenodd" clip-rule="evenodd" d="M81.3465 112.261C84.6944 112.858 87.9182 112.41 91.0055 111.045C91.8065 110.688 92.5436 110.16 93.2368 109.618C93.446 109.454 93.5458 108.93 93.4496 108.659C93.3594 108.404 92.9582 108.237 92.6643 108.089C92.521 108.016 92.3129 108.047 92.1395 108.076C87.8226 108.791 83.4705 108.894 79.1069 108.78C78.6626 108.769 78.2152 108.808 77.7772 108.862C77.2232 108.934 76.7466 109.152 76.5775 109.749C76.427 110.284 76.7593 110.831 77.5054 111.183C77.9855 111.412 78.4889 111.609 79.0007 111.746C79.7703 111.952 80.5615 112.092 81.3465 112.261Z" fill="#EC7161"/>
</svg>
