<svg width="65" height="61" viewBox="0 0 65 61" fill="none" xmlns="http://www.w3.org/2000/svg">
<path d="M4.45221 30.8611C5.6131 34.3413 7.72084 37.4291 10.5389 39.778C13.393 42.086 16.3634 44.2462 19.4387 46.25C23.6151 49.0003 27.9234 51.6007 32.1996 54.2957C34.5001 55.7143 35.6925 55.1368 35.4664 52.4745C35.3922 50.8704 34.7797 49.3382 33.7277 48.1251C26.1293 41.1611 18.6124 33.8599 9.54849 28.8077L8.93623 28.3412C7.75137 27.7701 6.43893 26.4021 5.34353 27.5554C4.24812 28.7088 4.62789 30.1262 4.45221 30.8611Z" fill="#EC7161"/>
<path d="M20.0876 13.8265C21.9908 19.4753 24.6616 24.8357 28.0249 29.757C31.1208 34.144 34.4555 38.3524 37.7901 42.5608C38.4803 43.2005 39.2692 43.7247 40.1264 44.1131C40.5466 43.1134 40.8535 42.0698 41.0411 41.0018C41.067 40.1348 40.8378 39.2793 40.3819 38.5415C36.2779 31.7112 32.1358 24.8816 27.9557 18.0526C26.4368 15.5934 24.811 13.1628 23.1317 10.7465C22.6742 10.1423 22.1262 9.61243 21.507 9.17548C20.5341 8.43297 19.7533 8.72817 19.6995 9.91776C19.7302 11.2286 19.86 12.5352 20.0876 13.8265Z" fill="#EC7161"/>
<path d="M52.8619 21.3926C52.7721 18.1765 52.6969 12.8002 52.452 7.52921C52.4788 6.69907 51.6461 5.89651 51.2293 5.07972C50.6785 5.83749 49.7697 6.52828 49.6045 7.35394C48.984 9.90507 48.5939 12.5068 48.4388 15.1277C48.1701 23.429 48.0951 31.7367 47.9371 40.0416C47.9154 40.6226 47.9806 41.2036 48.1306 41.7653C48.3901 42.3582 48.7057 42.925 49.073 43.4578C49.5586 43.0027 50.2915 42.6109 50.4754 42.0628C50.919 40.7427 51.2141 39.3772 51.3551 37.9917C51.8752 33.0502 52.2506 28.2979 52.8619 21.3926Z" fill="#EC7161"/>
</svg>
